<mxfile host="app.diagrams.net" modified="2020-12-19T12:59:35.646Z" agent="5.0 (X11; Linux x86_64) AppleWebKit/537.36 (KHTML, like Gecko) Chrome/86.0.4240.198 Safari/537.36" etag="R3f_A3JoR4oVHgGWQIuV" version="14.1.1" type="github">
  <diagram id="3FRVFEMznvLmqMoktvZq" name="Page-1">
    <mxGraphModel dx="2370" dy="1243" grid="1" gridSize="10" guides="1" tooltips="1" connect="1" arrows="1" fold="1" page="1" pageScale="1" pageWidth="850" pageHeight="1100" math="0" shadow="0">
      <root>
        <mxCell id="0" />
        <mxCell id="1" parent="0" />
        <mxCell id="ZGsex49RbRiVFDESX9-7-1" value="" style="shape=image;verticalLabelPosition=bottom;labelBackgroundColor=#ffffff;verticalAlign=top;aspect=fixed;imageAspect=0;image=data:image/svg+xml,PHN2ZyB4bWxucz0iaHR0cDovL3d3dy53My5vcmcvMjAwMC9zdmciIHdpZHRoPSIxMjgiIGhlaWdodD0iMTI4IiB2aWV3Qm94PSIwIDAgMTI4IDEyOCI+PHBhdGggZD0iTTg0LjY2NSAxMDguNDE3Yy0xNy4zODYgMC0zMS40NzktMTMuMjk0LTMxLjQ3OS0yOS42OTEgMC0xNi4zOTUgMTQuMDkzLTI5LjY4OSAzMS40NzktMjkuNjg5IDE3LjM4NyAwIDMxLjQ4IDEzLjI5NCAzMS40OCAyOS42ODkgMCAxNi4zOTctMTQuMDkzIDI5LjY5MS0zMS40OCAyOS42OTF6IiBmaWxsPSIjZmZmIi8+PHBhdGggZD0iTTY2LjU0IDc1LjM4MWMuMjMtNC4xNjUgMi4yNzUtNy44NDEgNS4zNTMtMTAuNDQ0IDMuMDI0LTIuNTU5IDcuMDg3LTQuMTIyIDExLjUyNC00LjEyMiA0LjQzNyAwIDguNSAxLjU2MyAxMS41MjQgNC4xMjIgMy4wNzggMi42MDMgNS4xMiA2LjI3OSA1LjM1NSAxMC40NDIuMjM1IDQuMjg3LTEuNDg2IDguMjctNC41MDYgMTEuMjE2LTMuMDc5IDMuMDAyLTcuNDY2IDQuODg4LTEyLjM3MyA0Ljg4OC00LjkwNyAwLTkuMjk3LTEuODg2LTEyLjM3Ni00Ljg4OC0zLjAyLTIuOTQ4LTQuNzM4LTYuOTI5LTQuNS0xMS4yMTQiIGZpbGw9IiMyNjU3ODciLz48cGF0aCBkPSJNMzkuNjU3IDgzLjgxNWMuMDI4IDEuNjI3LjU1IDQuNzk3IDEuMzMgNy4yNzggMS42NCA1LjI0IDQuNDI0IDEwLjA4OCA4LjI5OSAxNC4zNjRhNDIuODk3IDQyLjg5NyAwIDAgMCAxNC41MTQgMTAuNDIgNDYuNjY3IDQ2LjY2NyAwIDAgMCAxOS4wNjQgMy45NjcgNDYuODExIDQ2LjgxMSAwIDAgMCAxOS4wNTgtNC4wM2M1LjY0OS0yLjUyOCAxMC41MzYtNi4wNjYgMTQuNTA5LTEwLjQ2NyAzLjg2Ny00LjI4OCA2LjY0Ny05LjE1IDguMjktMTQuMzkyYTM2LjU5IDM2LjU5IDAgMCAwIDEuNTU3LTguMDMzYy4yMDctMi42NTYuMTE5LTUuMzItLjI1Ny03Ljk3OGEzNy4xIDM3LjEgMCAwIDAtNS4yOS0xNC40NzcgNDAuNTczIDQwLjU3MyAwIDAgMC05LjY1LTEwLjY0MmwuMDA2LS4wMDUtMzkuMDUyLTI5Ljk5LS4xLS4wOGMtMi41NjctMS45NjUtNi44NzYtMS45Ni05LjY5Mi4wMTMtMi44NTIgMS45OTUtMy4xNzMgNS4yODktLjY0IDcuMzcybC0uMDA3LjAwOCAxNi4yODYgMTMuMjUtNDkuNjUxLjA1aC0uMDdjLTQuMTAyLjAwMi04LjA0MyAyLjctOC44MjkgNi4wOTktLjc5NyAzLjQ2OSAxLjk5MiA2LjM0MyA2LjI1NCA2LjM2MnYuMDExbDI1LjE2My0uMDQ3TDUuODQgODcuMzM3bC0uMTcyLjEzQzEuNDM1IDkwLjcwOS4wNjMgOTYuMTA1IDIuNzI5IDk5LjUxOWMyLjcxMSAzLjQ3NCA4LjQ2NyAzLjQ3NyAxMi43NS4wMTZsMjQuNTA3LTIwLjA1NHMtLjM1NCAyLjcxLS4zMjkgNC4zMzR6bTYyLjk3NiA5LjA2MmMtNS4wNDggNS4xNS0xMi4xMTMgOC4wNjYtMTkuNzcgOC4wOC03LjY1Ni4wMTctMTQuNzI2LTIuODc3LTE5Ljc3Ny04LjAxNmEyMy40OTUgMjMuNDk1IDAgMCAxLTUuNC04LjQ1IDIxLjk4IDIxLjk4IDAgMCAxLTEuMjQxLTkuNDM5IDIyLjMyNSAyMi4zMjUgMCAwIDEgMi43MS04Ljg5IDI0LjU1MiAyNC41NTIgMCAwIDEgNi4wMDgtNy4xNDVjNC45MDctNC4wMDIgMTEuMTUzLTYuMTY2IDE3LjY5NS02LjE3NCA2LjU0Mi0uMDA4IDEyLjc4OCAyLjEzOCAxNy42OTUgNi4xMjRhMjQuNDM2IDI0LjQzNiAwIDAgMSA2LjAwOCA3LjEyIDIyLjM3NSAyMi4zNzUgMCAwIDEgMi43MSA4Ljg4NSAyMS45OTYgMjEuOTk2IDAgMCAxLTEuMjQxIDkuNDM4IDIzLjYyMyAyMy42MjMgMCAwIDEtNS4zOTcgOC40NjciIGZpbGw9IiNlODdkMGQiLz48L3N2Zz4=;" vertex="1" parent="1">
          <mxGeometry x="210" y="37" width="90" height="90" as="geometry" />
        </mxCell>
        <mxCell id="ZGsex49RbRiVFDESX9-7-2" value="One Big File with Everything in it" style="text;html=1;strokeColor=none;fillColor=none;align=center;verticalAlign=middle;whiteSpace=wrap;rounded=0;" vertex="1" parent="1">
          <mxGeometry x="300" y="72" width="120" height="20" as="geometry" />
        </mxCell>
        <mxCell id="ZGsex49RbRiVFDESX9-7-27" style="edgeStyle=orthogonalEdgeStyle;rounded=0;orthogonalLoop=1;jettySize=auto;html=1;entryX=0.5;entryY=0;entryDx=0;entryDy=0;" edge="1" parent="1" source="ZGsex49RbRiVFDESX9-7-3" target="ZGsex49RbRiVFDESX9-7-24">
          <mxGeometry relative="1" as="geometry" />
        </mxCell>
        <mxCell id="ZGsex49RbRiVFDESX9-7-3" value="" style="shape=image;verticalLabelPosition=bottom;labelBackgroundColor=#ffffff;verticalAlign=top;aspect=fixed;imageAspect=0;image=data:image/svg+xml,PHN2ZyB4bWxucz0iaHR0cDovL3d3dy53My5vcmcvMjAwMC9zdmciIHdpZHRoPSIxMjgiIGhlaWdodD0iMTI4IiB2aWV3Qm94PSIwIDAgMTI4IDEyOCI+PHBhdGggZD0iTTg0LjY2NSAxMDguNDE3Yy0xNy4zODYgMC0zMS40NzktMTMuMjk0LTMxLjQ3OS0yOS42OTEgMC0xNi4zOTUgMTQuMDkzLTI5LjY4OSAzMS40NzktMjkuNjg5IDE3LjM4NyAwIDMxLjQ4IDEzLjI5NCAzMS40OCAyOS42ODkgMCAxNi4zOTctMTQuMDkzIDI5LjY5MS0zMS40OCAyOS42OTF6IiBmaWxsPSIjZmZmIi8+PHBhdGggZD0iTTY2LjU0IDc1LjM4MWMuMjMtNC4xNjUgMi4yNzUtNy44NDEgNS4zNTMtMTAuNDQ0IDMuMDI0LTIuNTU5IDcuMDg3LTQuMTIyIDExLjUyNC00LjEyMiA0LjQzNyAwIDguNSAxLjU2MyAxMS41MjQgNC4xMjIgMy4wNzggMi42MDMgNS4xMiA2LjI3OSA1LjM1NSAxMC40NDIuMjM1IDQuMjg3LTEuNDg2IDguMjctNC41MDYgMTEuMjE2LTMuMDc5IDMuMDAyLTcuNDY2IDQuODg4LTEyLjM3MyA0Ljg4OC00LjkwNyAwLTkuMjk3LTEuODg2LTEyLjM3Ni00Ljg4OC0zLjAyLTIuOTQ4LTQuNzM4LTYuOTI5LTQuNS0xMS4yMTQiIGZpbGw9IiMyNjU3ODciLz48cGF0aCBkPSJNMzkuNjU3IDgzLjgxNWMuMDI4IDEuNjI3LjU1IDQuNzk3IDEuMzMgNy4yNzggMS42NCA1LjI0IDQuNDI0IDEwLjA4OCA4LjI5OSAxNC4zNjRhNDIuODk3IDQyLjg5NyAwIDAgMCAxNC41MTQgMTAuNDIgNDYuNjY3IDQ2LjY2NyAwIDAgMCAxOS4wNjQgMy45NjcgNDYuODExIDQ2LjgxMSAwIDAgMCAxOS4wNTgtNC4wM2M1LjY0OS0yLjUyOCAxMC41MzYtNi4wNjYgMTQuNTA5LTEwLjQ2NyAzLjg2Ny00LjI4OCA2LjY0Ny05LjE1IDguMjktMTQuMzkyYTM2LjU5IDM2LjU5IDAgMCAwIDEuNTU3LTguMDMzYy4yMDctMi42NTYuMTE5LTUuMzItLjI1Ny03Ljk3OGEzNy4xIDM3LjEgMCAwIDAtNS4yOS0xNC40NzcgNDAuNTczIDQwLjU3MyAwIDAgMC05LjY1LTEwLjY0MmwuMDA2LS4wMDUtMzkuMDUyLTI5Ljk5LS4xLS4wOGMtMi41NjctMS45NjUtNi44NzYtMS45Ni05LjY5Mi4wMTMtMi44NTIgMS45OTUtMy4xNzMgNS4yODktLjY0IDcuMzcybC0uMDA3LjAwOCAxNi4yODYgMTMuMjUtNDkuNjUxLjA1aC0uMDdjLTQuMTAyLjAwMi04LjA0MyAyLjctOC44MjkgNi4wOTktLjc5NyAzLjQ2OSAxLjk5MiA2LjM0MyA2LjI1NCA2LjM2MnYuMDExbDI1LjE2My0uMDQ3TDUuODQgODcuMzM3bC0uMTcyLjEzQzEuNDM1IDkwLjcwOS4wNjMgOTYuMTA1IDIuNzI5IDk5LjUxOWMyLjcxMSAzLjQ3NCA4LjQ2NyAzLjQ3NyAxMi43NS4wMTZsMjQuNTA3LTIwLjA1NHMtLjM1NCAyLjcxLS4zMjkgNC4zMzR6bTYyLjk3NiA5LjA2MmMtNS4wNDggNS4xNS0xMi4xMTMgOC4wNjYtMTkuNzcgOC4wOC03LjY1Ni4wMTctMTQuNzI2LTIuODc3LTE5Ljc3Ny04LjAxNmEyMy40OTUgMjMuNDk1IDAgMCAxLTUuNC04LjQ1IDIxLjk4IDIxLjk4IDAgMCAxLTEuMjQxLTkuNDM5IDIyLjMyNSAyMi4zMjUgMCAwIDEgMi43MS04Ljg5IDI0LjU1MiAyNC41NTIgMCAwIDEgNi4wMDgtNy4xNDVjNC45MDctNC4wMDIgMTEuMTUzLTYuMTY2IDE3LjY5NS02LjE3NCA2LjU0Mi0uMDA4IDEyLjc4OCAyLjEzOCAxNy42OTUgNi4xMjRhMjQuNDM2IDI0LjQzNiAwIDAgMSA2LjAwOCA3LjEyIDIyLjM3NSAyMi4zNzUgMCAwIDEgMi43MSA4Ljg4NSAyMS45OTYgMjEuOTk2IDAgMCAxLTEuMjQxIDkuNDM4IDIzLjYyMyAyMy42MjMgMCAwIDEtNS4zOTcgOC40NjciIGZpbGw9IiNlODdkMGQiLz48L3N2Zz4=;" vertex="1" parent="1">
          <mxGeometry x="344" y="281" width="91" height="91" as="geometry" />
        </mxCell>
        <mxCell id="ZGsex49RbRiVFDESX9-7-4" value="Animation Ready Scene File" style="text;html=1;strokeColor=none;fillColor=none;align=center;verticalAlign=middle;whiteSpace=wrap;rounded=0;" vertex="1" parent="1">
          <mxGeometry x="250" y="319" width="120" height="20" as="geometry" />
        </mxCell>
        <mxCell id="ZGsex49RbRiVFDESX9-7-5" value="" style="shape=image;verticalLabelPosition=bottom;labelBackgroundColor=#ffffff;verticalAlign=top;aspect=fixed;imageAspect=0;image=data:image/svg+xml,PHN2ZyB4bWxucz0iaHR0cDovL3d3dy53My5vcmcvMjAwMC9zdmciIHdpZHRoPSIxMjgiIGhlaWdodD0iMTI4IiB2aWV3Qm94PSIwIDAgMTI4IDEyOCI+PHBhdGggZD0iTTg0LjY2NSAxMDguNDE3Yy0xNy4zODYgMC0zMS40NzktMTMuMjk0LTMxLjQ3OS0yOS42OTEgMC0xNi4zOTUgMTQuMDkzLTI5LjY4OSAzMS40NzktMjkuNjg5IDE3LjM4NyAwIDMxLjQ4IDEzLjI5NCAzMS40OCAyOS42ODkgMCAxNi4zOTctMTQuMDkzIDI5LjY5MS0zMS40OCAyOS42OTF6IiBmaWxsPSIjZmZmIi8+PHBhdGggZD0iTTY2LjU0IDc1LjM4MWMuMjMtNC4xNjUgMi4yNzUtNy44NDEgNS4zNTMtMTAuNDQ0IDMuMDI0LTIuNTU5IDcuMDg3LTQuMTIyIDExLjUyNC00LjEyMiA0LjQzNyAwIDguNSAxLjU2MyAxMS41MjQgNC4xMjIgMy4wNzggMi42MDMgNS4xMiA2LjI3OSA1LjM1NSAxMC40NDIuMjM1IDQuMjg3LTEuNDg2IDguMjctNC41MDYgMTEuMjE2LTMuMDc5IDMuMDAyLTcuNDY2IDQuODg4LTEyLjM3MyA0Ljg4OC00LjkwNyAwLTkuMjk3LTEuODg2LTEyLjM3Ni00Ljg4OC0zLjAyLTIuOTQ4LTQuNzM4LTYuOTI5LTQuNS0xMS4yMTQiIGZpbGw9IiMyNjU3ODciLz48cGF0aCBkPSJNMzkuNjU3IDgzLjgxNWMuMDI4IDEuNjI3LjU1IDQuNzk3IDEuMzMgNy4yNzggMS42NCA1LjI0IDQuNDI0IDEwLjA4OCA4LjI5OSAxNC4zNjRhNDIuODk3IDQyLjg5NyAwIDAgMCAxNC41MTQgMTAuNDIgNDYuNjY3IDQ2LjY2NyAwIDAgMCAxOS4wNjQgMy45NjcgNDYuODExIDQ2LjgxMSAwIDAgMCAxOS4wNTgtNC4wM2M1LjY0OS0yLjUyOCAxMC41MzYtNi4wNjYgMTQuNTA5LTEwLjQ2NyAzLjg2Ny00LjI4OCA2LjY0Ny05LjE1IDguMjktMTQuMzkyYTM2LjU5IDM2LjU5IDAgMCAwIDEuNTU3LTguMDMzYy4yMDctMi42NTYuMTE5LTUuMzItLjI1Ny03Ljk3OGEzNy4xIDM3LjEgMCAwIDAtNS4yOS0xNC40NzcgNDAuNTczIDQwLjU3MyAwIDAgMC05LjY1LTEwLjY0MmwuMDA2LS4wMDUtMzkuMDUyLTI5Ljk5LS4xLS4wOGMtMi41NjctMS45NjUtNi44NzYtMS45Ni05LjY5Mi4wMTMtMi44NTIgMS45OTUtMy4xNzMgNS4yODktLjY0IDcuMzcybC0uMDA3LjAwOCAxNi4yODYgMTMuMjUtNDkuNjUxLjA1aC0uMDdjLTQuMTAyLjAwMi04LjA0MyAyLjctOC44MjkgNi4wOTktLjc5NyAzLjQ2OSAxLjk5MiA2LjM0MyA2LjI1NCA2LjM2MnYuMDExbDI1LjE2My0uMDQ3TDUuODQgODcuMzM3bC0uMTcyLjEzQzEuNDM1IDkwLjcwOS4wNjMgOTYuMTA1IDIuNzI5IDk5LjUxOWMyLjcxMSAzLjQ3NCA4LjQ2NyAzLjQ3NyAxMi43NS4wMTZsMjQuNTA3LTIwLjA1NHMtLjM1NCAyLjcxLS4zMjkgNC4zMzR6bTYyLjk3NiA5LjA2MmMtNS4wNDggNS4xNS0xMi4xMTMgOC4wNjYtMTkuNzcgOC4wOC03LjY1Ni4wMTctMTQuNzI2LTIuODc3LTE5Ljc3Ny04LjAxNmEyMy40OTUgMjMuNDk1IDAgMCAxLTUuNC04LjQ1IDIxLjk4IDIxLjk4IDAgMCAxLTEuMjQxLTkuNDM5IDIyLjMyNSAyMi4zMjUgMCAwIDEgMi43MS04Ljg5IDI0LjU1MiAyNC41NTIgMCAwIDEgNi4wMDgtNy4xNDVjNC45MDctNC4wMDIgMTEuMTUzLTYuMTY2IDE3LjY5NS02LjE3NCA2LjU0Mi0uMDA4IDEyLjc4OCAyLjEzOCAxNy42OTUgNi4xMjRhMjQuNDM2IDI0LjQzNiAwIDAgMSA2LjAwOCA3LjEyIDIyLjM3NSAyMi4zNzUgMCAwIDEgMi43MSA4Ljg4NSAyMS45OTYgMjEuOTk2IDAgMCAxLTEuMjQxIDkuNDM4IDIzLjYyMyAyMy42MjMgMCAwIDEtNS4zOTcgOC40NjciIGZpbGw9IiNlODdkMGQiLz48L3N2Zz4=;" vertex="1" parent="1">
          <mxGeometry x="600" y="252" width="58" height="58" as="geometry" />
        </mxCell>
        <mxCell id="ZGsex49RbRiVFDESX9-7-10" value="" style="shape=image;verticalLabelPosition=bottom;labelBackgroundColor=#ffffff;verticalAlign=top;aspect=fixed;imageAspect=0;image=data:image/svg+xml,PHN2ZyB4bWxucz0iaHR0cDovL3d3dy53My5vcmcvMjAwMC9zdmciIHdpZHRoPSIxMjgiIGhlaWdodD0iMTI4IiB2aWV3Qm94PSIwIDAgMTI4IDEyOCI+PHBhdGggZD0iTTg0LjY2NSAxMDguNDE3Yy0xNy4zODYgMC0zMS40NzktMTMuMjk0LTMxLjQ3OS0yOS42OTEgMC0xNi4zOTUgMTQuMDkzLTI5LjY4OSAzMS40NzktMjkuNjg5IDE3LjM4NyAwIDMxLjQ4IDEzLjI5NCAzMS40OCAyOS42ODkgMCAxNi4zOTctMTQuMDkzIDI5LjY5MS0zMS40OCAyOS42OTF6IiBmaWxsPSIjZmZmIi8+PHBhdGggZD0iTTY2LjU0IDc1LjM4MWMuMjMtNC4xNjUgMi4yNzUtNy44NDEgNS4zNTMtMTAuNDQ0IDMuMDI0LTIuNTU5IDcuMDg3LTQuMTIyIDExLjUyNC00LjEyMiA0LjQzNyAwIDguNSAxLjU2MyAxMS41MjQgNC4xMjIgMy4wNzggMi42MDMgNS4xMiA2LjI3OSA1LjM1NSAxMC40NDIuMjM1IDQuMjg3LTEuNDg2IDguMjctNC41MDYgMTEuMjE2LTMuMDc5IDMuMDAyLTcuNDY2IDQuODg4LTEyLjM3MyA0Ljg4OC00LjkwNyAwLTkuMjk3LTEuODg2LTEyLjM3Ni00Ljg4OC0zLjAyLTIuOTQ4LTQuNzM4LTYuOTI5LTQuNS0xMS4yMTQiIGZpbGw9IiMyNjU3ODciLz48cGF0aCBkPSJNMzkuNjU3IDgzLjgxNWMuMDI4IDEuNjI3LjU1IDQuNzk3IDEuMzMgNy4yNzggMS42NCA1LjI0IDQuNDI0IDEwLjA4OCA4LjI5OSAxNC4zNjRhNDIuODk3IDQyLjg5NyAwIDAgMCAxNC41MTQgMTAuNDIgNDYuNjY3IDQ2LjY2NyAwIDAgMCAxOS4wNjQgMy45NjcgNDYuODExIDQ2LjgxMSAwIDAgMCAxOS4wNTgtNC4wM2M1LjY0OS0yLjUyOCAxMC41MzYtNi4wNjYgMTQuNTA5LTEwLjQ2NyAzLjg2Ny00LjI4OCA2LjY0Ny05LjE1IDguMjktMTQuMzkyYTM2LjU5IDM2LjU5IDAgMCAwIDEuNTU3LTguMDMzYy4yMDctMi42NTYuMTE5LTUuMzItLjI1Ny03Ljk3OGEzNy4xIDM3LjEgMCAwIDAtNS4yOS0xNC40NzcgNDAuNTczIDQwLjU3MyAwIDAgMC05LjY1LTEwLjY0MmwuMDA2LS4wMDUtMzkuMDUyLTI5Ljk5LS4xLS4wOGMtMi41NjctMS45NjUtNi44NzYtMS45Ni05LjY5Mi4wMTMtMi44NTIgMS45OTUtMy4xNzMgNS4yODktLjY0IDcuMzcybC0uMDA3LjAwOCAxNi4yODYgMTMuMjUtNDkuNjUxLjA1aC0uMDdjLTQuMTAyLjAwMi04LjA0MyAyLjctOC44MjkgNi4wOTktLjc5NyAzLjQ2OSAxLjk5MiA2LjM0MyA2LjI1NCA2LjM2MnYuMDExbDI1LjE2My0uMDQ3TDUuODQgODcuMzM3bC0uMTcyLjEzQzEuNDM1IDkwLjcwOS4wNjMgOTYuMTA1IDIuNzI5IDk5LjUxOWMyLjcxMSAzLjQ3NCA4LjQ2NyAzLjQ3NyAxMi43NS4wMTZsMjQuNTA3LTIwLjA1NHMtLjM1NCAyLjcxLS4zMjkgNC4zMzR6bTYyLjk3NiA5LjA2MmMtNS4wNDggNS4xNS0xMi4xMTMgOC4wNjYtMTkuNzcgOC4wOC03LjY1Ni4wMTctMTQuNzI2LTIuODc3LTE5Ljc3Ny04LjAxNmEyMy40OTUgMjMuNDk1IDAgMCAxLTUuNC04LjQ1IDIxLjk4IDIxLjk4IDAgMCAxLTEuMjQxLTkuNDM5IDIyLjMyNSAyMi4zMjUgMCAwIDEgMi43MS04Ljg5IDI0LjU1MiAyNC41NTIgMCAwIDEgNi4wMDgtNy4xNDVjNC45MDctNC4wMDIgMTEuMTUzLTYuMTY2IDE3LjY5NS02LjE3NCA2LjU0Mi0uMDA4IDEyLjc4OCAyLjEzOCAxNy42OTUgNi4xMjRhMjQuNDM2IDI0LjQzNiAwIDAgMSA2LjAwOCA3LjEyIDIyLjM3NSAyMi4zNzUgMCAwIDEgMi43MSA4Ljg4NSAyMS45OTYgMjEuOTk2IDAgMCAxLTEuMjQxIDkuNDM4IDIzLjYyMyAyMy42MjMgMCAwIDEtNS4zOTcgOC40NjciIGZpbGw9IiNlODdkMGQiLz48L3N2Zz4=;" vertex="1" parent="1">
          <mxGeometry x="610" y="261" width="58" height="58" as="geometry" />
        </mxCell>
        <mxCell id="ZGsex49RbRiVFDESX9-7-11" value="" style="shape=image;verticalLabelPosition=bottom;labelBackgroundColor=#ffffff;verticalAlign=top;aspect=fixed;imageAspect=0;image=data:image/svg+xml,PHN2ZyB4bWxucz0iaHR0cDovL3d3dy53My5vcmcvMjAwMC9zdmciIHdpZHRoPSIxMjgiIGhlaWdodD0iMTI4IiB2aWV3Qm94PSIwIDAgMTI4IDEyOCI+PHBhdGggZD0iTTg0LjY2NSAxMDguNDE3Yy0xNy4zODYgMC0zMS40NzktMTMuMjk0LTMxLjQ3OS0yOS42OTEgMC0xNi4zOTUgMTQuMDkzLTI5LjY4OSAzMS40NzktMjkuNjg5IDE3LjM4NyAwIDMxLjQ4IDEzLjI5NCAzMS40OCAyOS42ODkgMCAxNi4zOTctMTQuMDkzIDI5LjY5MS0zMS40OCAyOS42OTF6IiBmaWxsPSIjZmZmIi8+PHBhdGggZD0iTTY2LjU0IDc1LjM4MWMuMjMtNC4xNjUgMi4yNzUtNy44NDEgNS4zNTMtMTAuNDQ0IDMuMDI0LTIuNTU5IDcuMDg3LTQuMTIyIDExLjUyNC00LjEyMiA0LjQzNyAwIDguNSAxLjU2MyAxMS41MjQgNC4xMjIgMy4wNzggMi42MDMgNS4xMiA2LjI3OSA1LjM1NSAxMC40NDIuMjM1IDQuMjg3LTEuNDg2IDguMjctNC41MDYgMTEuMjE2LTMuMDc5IDMuMDAyLTcuNDY2IDQuODg4LTEyLjM3MyA0Ljg4OC00LjkwNyAwLTkuMjk3LTEuODg2LTEyLjM3Ni00Ljg4OC0zLjAyLTIuOTQ4LTQuNzM4LTYuOTI5LTQuNS0xMS4yMTQiIGZpbGw9IiMyNjU3ODciLz48cGF0aCBkPSJNMzkuNjU3IDgzLjgxNWMuMDI4IDEuNjI3LjU1IDQuNzk3IDEuMzMgNy4yNzggMS42NCA1LjI0IDQuNDI0IDEwLjA4OCA4LjI5OSAxNC4zNjRhNDIuODk3IDQyLjg5NyAwIDAgMCAxNC41MTQgMTAuNDIgNDYuNjY3IDQ2LjY2NyAwIDAgMCAxOS4wNjQgMy45NjcgNDYuODExIDQ2LjgxMSAwIDAgMCAxOS4wNTgtNC4wM2M1LjY0OS0yLjUyOCAxMC41MzYtNi4wNjYgMTQuNTA5LTEwLjQ2NyAzLjg2Ny00LjI4OCA2LjY0Ny05LjE1IDguMjktMTQuMzkyYTM2LjU5IDM2LjU5IDAgMCAwIDEuNTU3LTguMDMzYy4yMDctMi42NTYuMTE5LTUuMzItLjI1Ny03Ljk3OGEzNy4xIDM3LjEgMCAwIDAtNS4yOS0xNC40NzcgNDAuNTczIDQwLjU3MyAwIDAgMC05LjY1LTEwLjY0MmwuMDA2LS4wMDUtMzkuMDUyLTI5Ljk5LS4xLS4wOGMtMi41NjctMS45NjUtNi44NzYtMS45Ni05LjY5Mi4wMTMtMi44NTIgMS45OTUtMy4xNzMgNS4yODktLjY0IDcuMzcybC0uMDA3LjAwOCAxNi4yODYgMTMuMjUtNDkuNjUxLjA1aC0uMDdjLTQuMTAyLjAwMi04LjA0MyAyLjctOC44MjkgNi4wOTktLjc5NyAzLjQ2OSAxLjk5MiA2LjM0MyA2LjI1NCA2LjM2MnYuMDExbDI1LjE2My0uMDQ3TDUuODQgODcuMzM3bC0uMTcyLjEzQzEuNDM1IDkwLjcwOS4wNjMgOTYuMTA1IDIuNzI5IDk5LjUxOWMyLjcxMSAzLjQ3NCA4LjQ2NyAzLjQ3NyAxMi43NS4wMTZsMjQuNTA3LTIwLjA1NHMtLjM1NCAyLjcxLS4zMjkgNC4zMzR6bTYyLjk3NiA5LjA2MmMtNS4wNDggNS4xNS0xMi4xMTMgOC4wNjYtMTkuNzcgOC4wOC03LjY1Ni4wMTctMTQuNzI2LTIuODc3LTE5Ljc3Ny04LjAxNmEyMy40OTUgMjMuNDk1IDAgMCAxLTUuNC04LjQ1IDIxLjk4IDIxLjk4IDAgMCAxLTEuMjQxLTkuNDM5IDIyLjMyNSAyMi4zMjUgMCAwIDEgMi43MS04Ljg5IDI0LjU1MiAyNC41NTIgMCAwIDEgNi4wMDgtNy4xNDVjNC45MDctNC4wMDIgMTEuMTUzLTYuMTY2IDE3LjY5NS02LjE3NCA2LjU0Mi0uMDA4IDEyLjc4OCAyLjEzOCAxNy42OTUgNi4xMjRhMjQuNDM2IDI0LjQzNiAwIDAgMSA2LjAwOCA3LjEyIDIyLjM3NSAyMi4zNzUgMCAwIDEgMi43MSA4Ljg4NSAyMS45OTYgMjEuOTk2IDAgMCAxLTEuMjQxIDkuNDM4IDIzLjYyMyAyMy42MjMgMCAwIDEtNS4zOTcgOC40NjciIGZpbGw9IiNlODdkMGQiLz48L3N2Zz4=;" vertex="1" parent="1">
          <mxGeometry x="620" y="271" width="58" height="58" as="geometry" />
        </mxCell>
        <mxCell id="ZGsex49RbRiVFDESX9-7-12" value="" style="shape=image;verticalLabelPosition=bottom;labelBackgroundColor=#ffffff;verticalAlign=top;aspect=fixed;imageAspect=0;image=data:image/svg+xml,PHN2ZyB4bWxucz0iaHR0cDovL3d3dy53My5vcmcvMjAwMC9zdmciIHdpZHRoPSIxMjgiIGhlaWdodD0iMTI4IiB2aWV3Qm94PSIwIDAgMTI4IDEyOCI+PHBhdGggZD0iTTg0LjY2NSAxMDguNDE3Yy0xNy4zODYgMC0zMS40NzktMTMuMjk0LTMxLjQ3OS0yOS42OTEgMC0xNi4zOTUgMTQuMDkzLTI5LjY4OSAzMS40NzktMjkuNjg5IDE3LjM4NyAwIDMxLjQ4IDEzLjI5NCAzMS40OCAyOS42ODkgMCAxNi4zOTctMTQuMDkzIDI5LjY5MS0zMS40OCAyOS42OTF6IiBmaWxsPSIjZmZmIi8+PHBhdGggZD0iTTY2LjU0IDc1LjM4MWMuMjMtNC4xNjUgMi4yNzUtNy44NDEgNS4zNTMtMTAuNDQ0IDMuMDI0LTIuNTU5IDcuMDg3LTQuMTIyIDExLjUyNC00LjEyMiA0LjQzNyAwIDguNSAxLjU2MyAxMS41MjQgNC4xMjIgMy4wNzggMi42MDMgNS4xMiA2LjI3OSA1LjM1NSAxMC40NDIuMjM1IDQuMjg3LTEuNDg2IDguMjctNC41MDYgMTEuMjE2LTMuMDc5IDMuMDAyLTcuNDY2IDQuODg4LTEyLjM3MyA0Ljg4OC00LjkwNyAwLTkuMjk3LTEuODg2LTEyLjM3Ni00Ljg4OC0zLjAyLTIuOTQ4LTQuNzM4LTYuOTI5LTQuNS0xMS4yMTQiIGZpbGw9IiMyNjU3ODciLz48cGF0aCBkPSJNMzkuNjU3IDgzLjgxNWMuMDI4IDEuNjI3LjU1IDQuNzk3IDEuMzMgNy4yNzggMS42NCA1LjI0IDQuNDI0IDEwLjA4OCA4LjI5OSAxNC4zNjRhNDIuODk3IDQyLjg5NyAwIDAgMCAxNC41MTQgMTAuNDIgNDYuNjY3IDQ2LjY2NyAwIDAgMCAxOS4wNjQgMy45NjcgNDYuODExIDQ2LjgxMSAwIDAgMCAxOS4wNTgtNC4wM2M1LjY0OS0yLjUyOCAxMC41MzYtNi4wNjYgMTQuNTA5LTEwLjQ2NyAzLjg2Ny00LjI4OCA2LjY0Ny05LjE1IDguMjktMTQuMzkyYTM2LjU5IDM2LjU5IDAgMCAwIDEuNTU3LTguMDMzYy4yMDctMi42NTYuMTE5LTUuMzItLjI1Ny03Ljk3OGEzNy4xIDM3LjEgMCAwIDAtNS4yOS0xNC40NzcgNDAuNTczIDQwLjU3MyAwIDAgMC05LjY1LTEwLjY0MmwuMDA2LS4wMDUtMzkuMDUyLTI5Ljk5LS4xLS4wOGMtMi41NjctMS45NjUtNi44NzYtMS45Ni05LjY5Mi4wMTMtMi44NTIgMS45OTUtMy4xNzMgNS4yODktLjY0IDcuMzcybC0uMDA3LjAwOCAxNi4yODYgMTMuMjUtNDkuNjUxLjA1aC0uMDdjLTQuMTAyLjAwMi04LjA0MyAyLjctOC44MjkgNi4wOTktLjc5NyAzLjQ2OSAxLjk5MiA2LjM0MyA2LjI1NCA2LjM2MnYuMDExbDI1LjE2My0uMDQ3TDUuODQgODcuMzM3bC0uMTcyLjEzQzEuNDM1IDkwLjcwOS4wNjMgOTYuMTA1IDIuNzI5IDk5LjUxOWMyLjcxMSAzLjQ3NCA4LjQ2NyAzLjQ3NyAxMi43NS4wMTZsMjQuNTA3LTIwLjA1NHMtLjM1NCAyLjcxLS4zMjkgNC4zMzR6bTYyLjk3NiA5LjA2MmMtNS4wNDggNS4xNS0xMi4xMTMgOC4wNjYtMTkuNzcgOC4wOC03LjY1Ni4wMTctMTQuNzI2LTIuODc3LTE5Ljc3Ny04LjAxNmEyMy40OTUgMjMuNDk1IDAgMCAxLTUuNC04LjQ1IDIxLjk4IDIxLjk4IDAgMCAxLTEuMjQxLTkuNDM5IDIyLjMyNSAyMi4zMjUgMCAwIDEgMi43MS04Ljg5IDI0LjU1MiAyNC41NTIgMCAwIDEgNi4wMDgtNy4xNDVjNC45MDctNC4wMDIgMTEuMTUzLTYuMTY2IDE3LjY5NS02LjE3NCA2LjU0Mi0uMDA4IDEyLjc4OCAyLjEzOCAxNy42OTUgNi4xMjRhMjQuNDM2IDI0LjQzNiAwIDAgMSA2LjAwOCA3LjEyIDIyLjM3NSAyMi4zNzUgMCAwIDEgMi43MSA4Ljg4NSAyMS45OTYgMjEuOTk2IDAgMCAxLTEuMjQxIDkuNDM4IDIzLjYyMyAyMy42MjMgMCAwIDEtNS4zOTcgOC40NjciIGZpbGw9IiNlODdkMGQiLz48L3N2Zz4=;" vertex="1" parent="1">
          <mxGeometry x="630" y="281" width="58" height="58" as="geometry" />
        </mxCell>
        <mxCell id="ZGsex49RbRiVFDESX9-7-19" style="edgeStyle=orthogonalEdgeStyle;rounded=0;orthogonalLoop=1;jettySize=auto;html=1;" edge="1" parent="1" source="ZGsex49RbRiVFDESX9-7-13" target="ZGsex49RbRiVFDESX9-7-3">
          <mxGeometry relative="1" as="geometry" />
        </mxCell>
        <mxCell id="ZGsex49RbRiVFDESX9-7-13" value="Models" style="text;html=1;strokeColor=none;fillColor=none;align=center;verticalAlign=middle;whiteSpace=wrap;rounded=0;" vertex="1" parent="1">
          <mxGeometry x="520" y="290" width="60" height="20" as="geometry" />
        </mxCell>
        <mxCell id="ZGsex49RbRiVFDESX9-7-14" value="" style="shape=image;verticalLabelPosition=bottom;labelBackgroundColor=#ffffff;verticalAlign=top;aspect=fixed;imageAspect=0;image=data:image/svg+xml,PHN2ZyB4bWxucz0iaHR0cDovL3d3dy53My5vcmcvMjAwMC9zdmciIHdpZHRoPSIxMjgiIGhlaWdodD0iMTI4IiB2aWV3Qm94PSIwIDAgMTI4IDEyOCI+PHBhdGggZD0iTTg0LjY2NSAxMDguNDE3Yy0xNy4zODYgMC0zMS40NzktMTMuMjk0LTMxLjQ3OS0yOS42OTEgMC0xNi4zOTUgMTQuMDkzLTI5LjY4OSAzMS40NzktMjkuNjg5IDE3LjM4NyAwIDMxLjQ4IDEzLjI5NCAzMS40OCAyOS42ODkgMCAxNi4zOTctMTQuMDkzIDI5LjY5MS0zMS40OCAyOS42OTF6IiBmaWxsPSIjZmZmIi8+PHBhdGggZD0iTTY2LjU0IDc1LjM4MWMuMjMtNC4xNjUgMi4yNzUtNy44NDEgNS4zNTMtMTAuNDQ0IDMuMDI0LTIuNTU5IDcuMDg3LTQuMTIyIDExLjUyNC00LjEyMiA0LjQzNyAwIDguNSAxLjU2MyAxMS41MjQgNC4xMjIgMy4wNzggMi42MDMgNS4xMiA2LjI3OSA1LjM1NSAxMC40NDIuMjM1IDQuMjg3LTEuNDg2IDguMjctNC41MDYgMTEuMjE2LTMuMDc5IDMuMDAyLTcuNDY2IDQuODg4LTEyLjM3MyA0Ljg4OC00LjkwNyAwLTkuMjk3LTEuODg2LTEyLjM3Ni00Ljg4OC0zLjAyLTIuOTQ4LTQuNzM4LTYuOTI5LTQuNS0xMS4yMTQiIGZpbGw9IiMyNjU3ODciLz48cGF0aCBkPSJNMzkuNjU3IDgzLjgxNWMuMDI4IDEuNjI3LjU1IDQuNzk3IDEuMzMgNy4yNzggMS42NCA1LjI0IDQuNDI0IDEwLjA4OCA4LjI5OSAxNC4zNjRhNDIuODk3IDQyLjg5NyAwIDAgMCAxNC41MTQgMTAuNDIgNDYuNjY3IDQ2LjY2NyAwIDAgMCAxOS4wNjQgMy45NjcgNDYuODExIDQ2LjgxMSAwIDAgMCAxOS4wNTgtNC4wM2M1LjY0OS0yLjUyOCAxMC41MzYtNi4wNjYgMTQuNTA5LTEwLjQ2NyAzLjg2Ny00LjI4OCA2LjY0Ny05LjE1IDguMjktMTQuMzkyYTM2LjU5IDM2LjU5IDAgMCAwIDEuNTU3LTguMDMzYy4yMDctMi42NTYuMTE5LTUuMzItLjI1Ny03Ljk3OGEzNy4xIDM3LjEgMCAwIDAtNS4yOS0xNC40NzcgNDAuNTczIDQwLjU3MyAwIDAgMC05LjY1LTEwLjY0MmwuMDA2LS4wMDUtMzkuMDUyLTI5Ljk5LS4xLS4wOGMtMi41NjctMS45NjUtNi44NzYtMS45Ni05LjY5Mi4wMTMtMi44NTIgMS45OTUtMy4xNzMgNS4yODktLjY0IDcuMzcybC0uMDA3LjAwOCAxNi4yODYgMTMuMjUtNDkuNjUxLjA1aC0uMDdjLTQuMTAyLjAwMi04LjA0MyAyLjctOC44MjkgNi4wOTktLjc5NyAzLjQ2OSAxLjk5MiA2LjM0MyA2LjI1NCA2LjM2MnYuMDExbDI1LjE2My0uMDQ3TDUuODQgODcuMzM3bC0uMTcyLjEzQzEuNDM1IDkwLjcwOS4wNjMgOTYuMTA1IDIuNzI5IDk5LjUxOWMyLjcxMSAzLjQ3NCA4LjQ2NyAzLjQ3NyAxMi43NS4wMTZsMjQuNTA3LTIwLjA1NHMtLjM1NCAyLjcxLS4zMjkgNC4zMzR6bTYyLjk3NiA5LjA2MmMtNS4wNDggNS4xNS0xMi4xMTMgOC4wNjYtMTkuNzcgOC4wOC03LjY1Ni4wMTctMTQuNzI2LTIuODc3LTE5Ljc3Ny04LjAxNmEyMy40OTUgMjMuNDk1IDAgMCAxLTUuNC04LjQ1IDIxLjk4IDIxLjk4IDAgMCAxLTEuMjQxLTkuNDM5IDIyLjMyNSAyMi4zMjUgMCAwIDEgMi43MS04Ljg5IDI0LjU1MiAyNC41NTIgMCAwIDEgNi4wMDgtNy4xNDVjNC45MDctNC4wMDIgMTEuMTUzLTYuMTY2IDE3LjY5NS02LjE3NCA2LjU0Mi0uMDA4IDEyLjc4OCAyLjEzOCAxNy42OTUgNi4xMjRhMjQuNDM2IDI0LjQzNiAwIDAgMSA2LjAwOCA3LjEyIDIyLjM3NSAyMi4zNzUgMCAwIDEgMi43MSA4Ljg4NSAyMS45OTYgMjEuOTk2IDAgMCAxLTEuMjQxIDkuNDM4IDIzLjYyMyAyMy42MjMgMCAwIDEtNS4zOTcgOC40NjciIGZpbGw9IiNlODdkMGQiLz48L3N2Zz4=;" vertex="1" parent="1">
          <mxGeometry x="600" y="352" width="58" height="58" as="geometry" />
        </mxCell>
        <mxCell id="ZGsex49RbRiVFDESX9-7-15" value="" style="shape=image;verticalLabelPosition=bottom;labelBackgroundColor=#ffffff;verticalAlign=top;aspect=fixed;imageAspect=0;image=data:image/svg+xml,PHN2ZyB4bWxucz0iaHR0cDovL3d3dy53My5vcmcvMjAwMC9zdmciIHdpZHRoPSIxMjgiIGhlaWdodD0iMTI4IiB2aWV3Qm94PSIwIDAgMTI4IDEyOCI+PHBhdGggZD0iTTg0LjY2NSAxMDguNDE3Yy0xNy4zODYgMC0zMS40NzktMTMuMjk0LTMxLjQ3OS0yOS42OTEgMC0xNi4zOTUgMTQuMDkzLTI5LjY4OSAzMS40NzktMjkuNjg5IDE3LjM4NyAwIDMxLjQ4IDEzLjI5NCAzMS40OCAyOS42ODkgMCAxNi4zOTctMTQuMDkzIDI5LjY5MS0zMS40OCAyOS42OTF6IiBmaWxsPSIjZmZmIi8+PHBhdGggZD0iTTY2LjU0IDc1LjM4MWMuMjMtNC4xNjUgMi4yNzUtNy44NDEgNS4zNTMtMTAuNDQ0IDMuMDI0LTIuNTU5IDcuMDg3LTQuMTIyIDExLjUyNC00LjEyMiA0LjQzNyAwIDguNSAxLjU2MyAxMS41MjQgNC4xMjIgMy4wNzggMi42MDMgNS4xMiA2LjI3OSA1LjM1NSAxMC40NDIuMjM1IDQuMjg3LTEuNDg2IDguMjctNC41MDYgMTEuMjE2LTMuMDc5IDMuMDAyLTcuNDY2IDQuODg4LTEyLjM3MyA0Ljg4OC00LjkwNyAwLTkuMjk3LTEuODg2LTEyLjM3Ni00Ljg4OC0zLjAyLTIuOTQ4LTQuNzM4LTYuOTI5LTQuNS0xMS4yMTQiIGZpbGw9IiMyNjU3ODciLz48cGF0aCBkPSJNMzkuNjU3IDgzLjgxNWMuMDI4IDEuNjI3LjU1IDQuNzk3IDEuMzMgNy4yNzggMS42NCA1LjI0IDQuNDI0IDEwLjA4OCA4LjI5OSAxNC4zNjRhNDIuODk3IDQyLjg5NyAwIDAgMCAxNC41MTQgMTAuNDIgNDYuNjY3IDQ2LjY2NyAwIDAgMCAxOS4wNjQgMy45NjcgNDYuODExIDQ2LjgxMSAwIDAgMCAxOS4wNTgtNC4wM2M1LjY0OS0yLjUyOCAxMC41MzYtNi4wNjYgMTQuNTA5LTEwLjQ2NyAzLjg2Ny00LjI4OCA2LjY0Ny05LjE1IDguMjktMTQuMzkyYTM2LjU5IDM2LjU5IDAgMCAwIDEuNTU3LTguMDMzYy4yMDctMi42NTYuMTE5LTUuMzItLjI1Ny03Ljk3OGEzNy4xIDM3LjEgMCAwIDAtNS4yOS0xNC40NzcgNDAuNTczIDQwLjU3MyAwIDAgMC05LjY1LTEwLjY0MmwuMDA2LS4wMDUtMzkuMDUyLTI5Ljk5LS4xLS4wOGMtMi41NjctMS45NjUtNi44NzYtMS45Ni05LjY5Mi4wMTMtMi44NTIgMS45OTUtMy4xNzMgNS4yODktLjY0IDcuMzcybC0uMDA3LjAwOCAxNi4yODYgMTMuMjUtNDkuNjUxLjA1aC0uMDdjLTQuMTAyLjAwMi04LjA0MyAyLjctOC44MjkgNi4wOTktLjc5NyAzLjQ2OSAxLjk5MiA2LjM0MyA2LjI1NCA2LjM2MnYuMDExbDI1LjE2My0uMDQ3TDUuODQgODcuMzM3bC0uMTcyLjEzQzEuNDM1IDkwLjcwOS4wNjMgOTYuMTA1IDIuNzI5IDk5LjUxOWMyLjcxMSAzLjQ3NCA4LjQ2NyAzLjQ3NyAxMi43NS4wMTZsMjQuNTA3LTIwLjA1NHMtLjM1NCAyLjcxLS4zMjkgNC4zMzR6bTYyLjk3NiA5LjA2MmMtNS4wNDggNS4xNS0xMi4xMTMgOC4wNjYtMTkuNzcgOC4wOC03LjY1Ni4wMTctMTQuNzI2LTIuODc3LTE5Ljc3Ny04LjAxNmEyMy40OTUgMjMuNDk1IDAgMCAxLTUuNC04LjQ1IDIxLjk4IDIxLjk4IDAgMCAxLTEuMjQxLTkuNDM5IDIyLjMyNSAyMi4zMjUgMCAwIDEgMi43MS04Ljg5IDI0LjU1MiAyNC41NTIgMCAwIDEgNi4wMDgtNy4xNDVjNC45MDctNC4wMDIgMTEuMTUzLTYuMTY2IDE3LjY5NS02LjE3NCA2LjU0Mi0uMDA4IDEyLjc4OCAyLjEzOCAxNy42OTUgNi4xMjRhMjQuNDM2IDI0LjQzNiAwIDAgMSA2LjAwOCA3LjEyIDIyLjM3NSAyMi4zNzUgMCAwIDEgMi43MSA4Ljg4NSAyMS45OTYgMjEuOTk2IDAgMCAxLTEuMjQxIDkuNDM4IDIzLjYyMyAyMy42MjMgMCAwIDEtNS4zOTcgOC40NjciIGZpbGw9IiNlODdkMGQiLz48L3N2Zz4=;" vertex="1" parent="1">
          <mxGeometry x="610" y="361" width="58" height="58" as="geometry" />
        </mxCell>
        <mxCell id="ZGsex49RbRiVFDESX9-7-16" value="" style="shape=image;verticalLabelPosition=bottom;labelBackgroundColor=#ffffff;verticalAlign=top;aspect=fixed;imageAspect=0;image=data:image/svg+xml,PHN2ZyB4bWxucz0iaHR0cDovL3d3dy53My5vcmcvMjAwMC9zdmciIHdpZHRoPSIxMjgiIGhlaWdodD0iMTI4IiB2aWV3Qm94PSIwIDAgMTI4IDEyOCI+PHBhdGggZD0iTTg0LjY2NSAxMDguNDE3Yy0xNy4zODYgMC0zMS40NzktMTMuMjk0LTMxLjQ3OS0yOS42OTEgMC0xNi4zOTUgMTQuMDkzLTI5LjY4OSAzMS40NzktMjkuNjg5IDE3LjM4NyAwIDMxLjQ4IDEzLjI5NCAzMS40OCAyOS42ODkgMCAxNi4zOTctMTQuMDkzIDI5LjY5MS0zMS40OCAyOS42OTF6IiBmaWxsPSIjZmZmIi8+PHBhdGggZD0iTTY2LjU0IDc1LjM4MWMuMjMtNC4xNjUgMi4yNzUtNy44NDEgNS4zNTMtMTAuNDQ0IDMuMDI0LTIuNTU5IDcuMDg3LTQuMTIyIDExLjUyNC00LjEyMiA0LjQzNyAwIDguNSAxLjU2MyAxMS41MjQgNC4xMjIgMy4wNzggMi42MDMgNS4xMiA2LjI3OSA1LjM1NSAxMC40NDIuMjM1IDQuMjg3LTEuNDg2IDguMjctNC41MDYgMTEuMjE2LTMuMDc5IDMuMDAyLTcuNDY2IDQuODg4LTEyLjM3MyA0Ljg4OC00LjkwNyAwLTkuMjk3LTEuODg2LTEyLjM3Ni00Ljg4OC0zLjAyLTIuOTQ4LTQuNzM4LTYuOTI5LTQuNS0xMS4yMTQiIGZpbGw9IiMyNjU3ODciLz48cGF0aCBkPSJNMzkuNjU3IDgzLjgxNWMuMDI4IDEuNjI3LjU1IDQuNzk3IDEuMzMgNy4yNzggMS42NCA1LjI0IDQuNDI0IDEwLjA4OCA4LjI5OSAxNC4zNjRhNDIuODk3IDQyLjg5NyAwIDAgMCAxNC41MTQgMTAuNDIgNDYuNjY3IDQ2LjY2NyAwIDAgMCAxOS4wNjQgMy45NjcgNDYuODExIDQ2LjgxMSAwIDAgMCAxOS4wNTgtNC4wM2M1LjY0OS0yLjUyOCAxMC41MzYtNi4wNjYgMTQuNTA5LTEwLjQ2NyAzLjg2Ny00LjI4OCA2LjY0Ny05LjE1IDguMjktMTQuMzkyYTM2LjU5IDM2LjU5IDAgMCAwIDEuNTU3LTguMDMzYy4yMDctMi42NTYuMTE5LTUuMzItLjI1Ny03Ljk3OGEzNy4xIDM3LjEgMCAwIDAtNS4yOS0xNC40NzcgNDAuNTczIDQwLjU3MyAwIDAgMC05LjY1LTEwLjY0MmwuMDA2LS4wMDUtMzkuMDUyLTI5Ljk5LS4xLS4wOGMtMi41NjctMS45NjUtNi44NzYtMS45Ni05LjY5Mi4wMTMtMi44NTIgMS45OTUtMy4xNzMgNS4yODktLjY0IDcuMzcybC0uMDA3LjAwOCAxNi4yODYgMTMuMjUtNDkuNjUxLjA1aC0uMDdjLTQuMTAyLjAwMi04LjA0MyAyLjctOC44MjkgNi4wOTktLjc5NyAzLjQ2OSAxLjk5MiA2LjM0MyA2LjI1NCA2LjM2MnYuMDExbDI1LjE2My0uMDQ3TDUuODQgODcuMzM3bC0uMTcyLjEzQzEuNDM1IDkwLjcwOS4wNjMgOTYuMTA1IDIuNzI5IDk5LjUxOWMyLjcxMSAzLjQ3NCA4LjQ2NyAzLjQ3NyAxMi43NS4wMTZsMjQuNTA3LTIwLjA1NHMtLjM1NCAyLjcxLS4zMjkgNC4zMzR6bTYyLjk3NiA5LjA2MmMtNS4wNDggNS4xNS0xMi4xMTMgOC4wNjYtMTkuNzcgOC4wOC03LjY1Ni4wMTctMTQuNzI2LTIuODc3LTE5Ljc3Ny04LjAxNmEyMy40OTUgMjMuNDk1IDAgMCAxLTUuNC04LjQ1IDIxLjk4IDIxLjk4IDAgMCAxLTEuMjQxLTkuNDM5IDIyLjMyNSAyMi4zMjUgMCAwIDEgMi43MS04Ljg5IDI0LjU1MiAyNC41NTIgMCAwIDEgNi4wMDgtNy4xNDVjNC45MDctNC4wMDIgMTEuMTUzLTYuMTY2IDE3LjY5NS02LjE3NCA2LjU0Mi0uMDA4IDEyLjc4OCAyLjEzOCAxNy42OTUgNi4xMjRhMjQuNDM2IDI0LjQzNiAwIDAgMSA2LjAwOCA3LjEyIDIyLjM3NSAyMi4zNzUgMCAwIDEgMi43MSA4Ljg4NSAyMS45OTYgMjEuOTk2IDAgMCAxLTEuMjQxIDkuNDM4IDIzLjYyMyAyMy42MjMgMCAwIDEtNS4zOTcgOC40NjciIGZpbGw9IiNlODdkMGQiLz48L3N2Zz4=;" vertex="1" parent="1">
          <mxGeometry x="620" y="371" width="58" height="58" as="geometry" />
        </mxCell>
        <mxCell id="ZGsex49RbRiVFDESX9-7-17" value="" style="shape=image;verticalLabelPosition=bottom;labelBackgroundColor=#ffffff;verticalAlign=top;aspect=fixed;imageAspect=0;image=data:image/svg+xml,PHN2ZyB4bWxucz0iaHR0cDovL3d3dy53My5vcmcvMjAwMC9zdmciIHdpZHRoPSIxMjgiIGhlaWdodD0iMTI4IiB2aWV3Qm94PSIwIDAgMTI4IDEyOCI+PHBhdGggZD0iTTg0LjY2NSAxMDguNDE3Yy0xNy4zODYgMC0zMS40NzktMTMuMjk0LTMxLjQ3OS0yOS42OTEgMC0xNi4zOTUgMTQuMDkzLTI5LjY4OSAzMS40NzktMjkuNjg5IDE3LjM4NyAwIDMxLjQ4IDEzLjI5NCAzMS40OCAyOS42ODkgMCAxNi4zOTctMTQuMDkzIDI5LjY5MS0zMS40OCAyOS42OTF6IiBmaWxsPSIjZmZmIi8+PHBhdGggZD0iTTY2LjU0IDc1LjM4MWMuMjMtNC4xNjUgMi4yNzUtNy44NDEgNS4zNTMtMTAuNDQ0IDMuMDI0LTIuNTU5IDcuMDg3LTQuMTIyIDExLjUyNC00LjEyMiA0LjQzNyAwIDguNSAxLjU2MyAxMS41MjQgNC4xMjIgMy4wNzggMi42MDMgNS4xMiA2LjI3OSA1LjM1NSAxMC40NDIuMjM1IDQuMjg3LTEuNDg2IDguMjctNC41MDYgMTEuMjE2LTMuMDc5IDMuMDAyLTcuNDY2IDQuODg4LTEyLjM3MyA0Ljg4OC00LjkwNyAwLTkuMjk3LTEuODg2LTEyLjM3Ni00Ljg4OC0zLjAyLTIuOTQ4LTQuNzM4LTYuOTI5LTQuNS0xMS4yMTQiIGZpbGw9IiMyNjU3ODciLz48cGF0aCBkPSJNMzkuNjU3IDgzLjgxNWMuMDI4IDEuNjI3LjU1IDQuNzk3IDEuMzMgNy4yNzggMS42NCA1LjI0IDQuNDI0IDEwLjA4OCA4LjI5OSAxNC4zNjRhNDIuODk3IDQyLjg5NyAwIDAgMCAxNC41MTQgMTAuNDIgNDYuNjY3IDQ2LjY2NyAwIDAgMCAxOS4wNjQgMy45NjcgNDYuODExIDQ2LjgxMSAwIDAgMCAxOS4wNTgtNC4wM2M1LjY0OS0yLjUyOCAxMC41MzYtNi4wNjYgMTQuNTA5LTEwLjQ2NyAzLjg2Ny00LjI4OCA2LjY0Ny05LjE1IDguMjktMTQuMzkyYTM2LjU5IDM2LjU5IDAgMCAwIDEuNTU3LTguMDMzYy4yMDctMi42NTYuMTE5LTUuMzItLjI1Ny03Ljk3OGEzNy4xIDM3LjEgMCAwIDAtNS4yOS0xNC40NzcgNDAuNTczIDQwLjU3MyAwIDAgMC05LjY1LTEwLjY0MmwuMDA2LS4wMDUtMzkuMDUyLTI5Ljk5LS4xLS4wOGMtMi41NjctMS45NjUtNi44NzYtMS45Ni05LjY5Mi4wMTMtMi44NTIgMS45OTUtMy4xNzMgNS4yODktLjY0IDcuMzcybC0uMDA3LjAwOCAxNi4yODYgMTMuMjUtNDkuNjUxLjA1aC0uMDdjLTQuMTAyLjAwMi04LjA0MyAyLjctOC44MjkgNi4wOTktLjc5NyAzLjQ2OSAxLjk5MiA2LjM0MyA2LjI1NCA2LjM2MnYuMDExbDI1LjE2My0uMDQ3TDUuODQgODcuMzM3bC0uMTcyLjEzQzEuNDM1IDkwLjcwOS4wNjMgOTYuMTA1IDIuNzI5IDk5LjUxOWMyLjcxMSAzLjQ3NCA4LjQ2NyAzLjQ3NyAxMi43NS4wMTZsMjQuNTA3LTIwLjA1NHMtLjM1NCAyLjcxLS4zMjkgNC4zMzR6bTYyLjk3NiA5LjA2MmMtNS4wNDggNS4xNS0xMi4xMTMgOC4wNjYtMTkuNzcgOC4wOC03LjY1Ni4wMTctMTQuNzI2LTIuODc3LTE5Ljc3Ny04LjAxNmEyMy40OTUgMjMuNDk1IDAgMCAxLTUuNC04LjQ1IDIxLjk4IDIxLjk4IDAgMCAxLTEuMjQxLTkuNDM5IDIyLjMyNSAyMi4zMjUgMCAwIDEgMi43MS04Ljg5IDI0LjU1MiAyNC41NTIgMCAwIDEgNi4wMDgtNy4xNDVjNC45MDctNC4wMDIgMTEuMTUzLTYuMTY2IDE3LjY5NS02LjE3NCA2LjU0Mi0uMDA4IDEyLjc4OCAyLjEzOCAxNy42OTUgNi4xMjRhMjQuNDM2IDI0LjQzNiAwIDAgMSA2LjAwOCA3LjEyIDIyLjM3NSAyMi4zNzUgMCAwIDEgMi43MSA4Ljg4NSAyMS45OTYgMjEuOTk2IDAgMCAxLTEuMjQxIDkuNDM4IDIzLjYyMyAyMy42MjMgMCAwIDEtNS4zOTcgOC40NjciIGZpbGw9IiNlODdkMGQiLz48L3N2Zz4=;" vertex="1" parent="1">
          <mxGeometry x="630" y="381" width="51" height="51" as="geometry" />
        </mxCell>
        <mxCell id="ZGsex49RbRiVFDESX9-7-21" style="edgeStyle=orthogonalEdgeStyle;rounded=0;orthogonalLoop=1;jettySize=auto;html=1;entryX=1;entryY=0.5;entryDx=0;entryDy=0;" edge="1" parent="1" source="ZGsex49RbRiVFDESX9-7-18" target="ZGsex49RbRiVFDESX9-7-3">
          <mxGeometry relative="1" as="geometry" />
        </mxCell>
        <mxCell id="ZGsex49RbRiVFDESX9-7-18" value="Textures" style="text;html=1;strokeColor=none;fillColor=none;align=center;verticalAlign=middle;whiteSpace=wrap;rounded=0;" vertex="1" parent="1">
          <mxGeometry x="520" y="390" width="70" height="20" as="geometry" />
        </mxCell>
        <mxCell id="ZGsex49RbRiVFDESX9-7-22" value="&lt;h1&gt;Current State&lt;/h1&gt;&lt;p&gt;Scene, Effects, Compositing all done in single file.&lt;/p&gt;&lt;p&gt;&lt;br&gt;Bottlenecks Rendering to single compute node.&lt;/p&gt;&lt;p&gt;&lt;br&gt;Doesn&#39;t scale well for small teams to grow.&lt;/p&gt;" style="text;html=1;strokeColor=none;fillColor=none;spacing=5;spacingTop=-20;whiteSpace=wrap;overflow=hidden;rounded=0;" vertex="1" parent="1">
          <mxGeometry x="10" y="10" width="190" height="192" as="geometry" />
        </mxCell>
        <mxCell id="ZGsex49RbRiVFDESX9-7-34" style="edgeStyle=orthogonalEdgeStyle;rounded=0;orthogonalLoop=1;jettySize=auto;html=1;" edge="1" parent="1" source="ZGsex49RbRiVFDESX9-7-23" target="ZGsex49RbRiVFDESX9-7-32">
          <mxGeometry relative="1" as="geometry" />
        </mxCell>
        <mxCell id="ZGsex49RbRiVFDESX9-7-23" value="" style="shape=image;verticalLabelPosition=bottom;labelBackgroundColor=#ffffff;verticalAlign=top;aspect=fixed;imageAspect=0;image=data:image/svg+xml,PHN2ZyB4bWxucz0iaHR0cDovL3d3dy53My5vcmcvMjAwMC9zdmciIHdpZHRoPSIxMjgiIGhlaWdodD0iMTI4IiB2aWV3Qm94PSIwIDAgMTI4IDEyOCI+PHBhdGggZD0iTTg0LjY2NSAxMDguNDE3Yy0xNy4zODYgMC0zMS40NzktMTMuMjk0LTMxLjQ3OS0yOS42OTEgMC0xNi4zOTUgMTQuMDkzLTI5LjY4OSAzMS40NzktMjkuNjg5IDE3LjM4NyAwIDMxLjQ4IDEzLjI5NCAzMS40OCAyOS42ODkgMCAxNi4zOTctMTQuMDkzIDI5LjY5MS0zMS40OCAyOS42OTF6IiBmaWxsPSIjZmZmIi8+PHBhdGggZD0iTTY2LjU0IDc1LjM4MWMuMjMtNC4xNjUgMi4yNzUtNy44NDEgNS4zNTMtMTAuNDQ0IDMuMDI0LTIuNTU5IDcuMDg3LTQuMTIyIDExLjUyNC00LjEyMiA0LjQzNyAwIDguNSAxLjU2MyAxMS41MjQgNC4xMjIgMy4wNzggMi42MDMgNS4xMiA2LjI3OSA1LjM1NSAxMC40NDIuMjM1IDQuMjg3LTEuNDg2IDguMjctNC41MDYgMTEuMjE2LTMuMDc5IDMuMDAyLTcuNDY2IDQuODg4LTEyLjM3MyA0Ljg4OC00LjkwNyAwLTkuMjk3LTEuODg2LTEyLjM3Ni00Ljg4OC0zLjAyLTIuOTQ4LTQuNzM4LTYuOTI5LTQuNS0xMS4yMTQiIGZpbGw9IiMyNjU3ODciLz48cGF0aCBkPSJNMzkuNjU3IDgzLjgxNWMuMDI4IDEuNjI3LjU1IDQuNzk3IDEuMzMgNy4yNzggMS42NCA1LjI0IDQuNDI0IDEwLjA4OCA4LjI5OSAxNC4zNjRhNDIuODk3IDQyLjg5NyAwIDAgMCAxNC41MTQgMTAuNDIgNDYuNjY3IDQ2LjY2NyAwIDAgMCAxOS4wNjQgMy45NjcgNDYuODExIDQ2LjgxMSAwIDAgMCAxOS4wNTgtNC4wM2M1LjY0OS0yLjUyOCAxMC41MzYtNi4wNjYgMTQuNTA5LTEwLjQ2NyAzLjg2Ny00LjI4OCA2LjY0Ny05LjE1IDguMjktMTQuMzkyYTM2LjU5IDM2LjU5IDAgMCAwIDEuNTU3LTguMDMzYy4yMDctMi42NTYuMTE5LTUuMzItLjI1Ny03Ljk3OGEzNy4xIDM3LjEgMCAwIDAtNS4yOS0xNC40NzcgNDAuNTczIDQwLjU3MyAwIDAgMC05LjY1LTEwLjY0MmwuMDA2LS4wMDUtMzkuMDUyLTI5Ljk5LS4xLS4wOGMtMi41NjctMS45NjUtNi44NzYtMS45Ni05LjY5Mi4wMTMtMi44NTIgMS45OTUtMy4xNzMgNS4yODktLjY0IDcuMzcybC0uMDA3LjAwOCAxNi4yODYgMTMuMjUtNDkuNjUxLjA1aC0uMDdjLTQuMTAyLjAwMi04LjA0MyAyLjctOC44MjkgNi4wOTktLjc5NyAzLjQ2OSAxLjk5MiA2LjM0MyA2LjI1NCA2LjM2MnYuMDExbDI1LjE2My0uMDQ3TDUuODQgODcuMzM3bC0uMTcyLjEzQzEuNDM1IDkwLjcwOS4wNjMgOTYuMTA1IDIuNzI5IDk5LjUxOWMyLjcxMSAzLjQ3NCA4LjQ2NyAzLjQ3NyAxMi43NS4wMTZsMjQuNTA3LTIwLjA1NHMtLjM1NCAyLjcxLS4zMjkgNC4zMzR6bTYyLjk3NiA5LjA2MmMtNS4wNDggNS4xNS0xMi4xMTMgOC4wNjYtMTkuNzcgOC4wOC03LjY1Ni4wMTctMTQuNzI2LTIuODc3LTE5Ljc3Ny04LjAxNmEyMy40OTUgMjMuNDk1IDAgMCAxLTUuNC04LjQ1IDIxLjk4IDIxLjk4IDAgMCAxLTEuMjQxLTkuNDM5IDIyLjMyNSAyMi4zMjUgMCAwIDEgMi43MS04Ljg5IDI0LjU1MiAyNC41NTIgMCAwIDEgNi4wMDgtNy4xNDVjNC45MDctNC4wMDIgMTEuMTUzLTYuMTY2IDE3LjY5NS02LjE3NCA2LjU0Mi0uMDA4IDEyLjc4OCAyLjEzOCAxNy42OTUgNi4xMjRhMjQuNDM2IDI0LjQzNiAwIDAgMSA2LjAwOCA3LjEyIDIyLjM3NSAyMi4zNzUgMCAwIDEgMi43MSA4Ljg4NSAyMS45OTYgMjEuOTk2IDAgMCAxLTEuMjQxIDkuNDM4IDIzLjYyMyAyMy42MjMgMCAwIDEtNS4zOTcgOC40NjciIGZpbGw9IiNlODdkMGQiLz48L3N2Zz4=;" vertex="1" parent="1">
          <mxGeometry x="344" y="662" width="91" height="91" as="geometry" />
        </mxCell>
        <mxCell id="ZGsex49RbRiVFDESX9-7-28" style="edgeStyle=orthogonalEdgeStyle;rounded=0;orthogonalLoop=1;jettySize=auto;html=1;entryX=0.5;entryY=0;entryDx=0;entryDy=0;" edge="1" parent="1" source="ZGsex49RbRiVFDESX9-7-24" target="ZGsex49RbRiVFDESX9-7-23">
          <mxGeometry relative="1" as="geometry" />
        </mxCell>
        <mxCell id="ZGsex49RbRiVFDESX9-7-24" value="" style="shape=image;verticalLabelPosition=bottom;labelBackgroundColor=#ffffff;verticalAlign=top;aspect=fixed;imageAspect=0;image=https://cdn.iconscout.com/icon/free/png-512/docker-11-1175228.png;" vertex="1" parent="1">
          <mxGeometry x="344.5" y="457.5" width="90" height="90" as="geometry" />
        </mxCell>
        <mxCell id="ZGsex49RbRiVFDESX9-7-51" style="edgeStyle=orthogonalEdgeStyle;rounded=0;orthogonalLoop=1;jettySize=auto;html=1;" edge="1" parent="1" source="ZGsex49RbRiVFDESX9-7-25" target="ZGsex49RbRiVFDESX9-7-26">
          <mxGeometry relative="1" as="geometry" />
        </mxCell>
        <mxCell id="ZGsex49RbRiVFDESX9-7-25" value="Render To Buffer" style="text;html=1;strokeColor=none;fillColor=none;align=center;verticalAlign=middle;whiteSpace=wrap;rounded=0;" vertex="1" parent="1">
          <mxGeometry x="224" y="492.5" width="120" height="20" as="geometry" />
        </mxCell>
        <mxCell id="ZGsex49RbRiVFDESX9-7-55" style="edgeStyle=orthogonalEdgeStyle;rounded=0;orthogonalLoop=1;jettySize=auto;html=1;entryX=0;entryY=0.5;entryDx=0;entryDy=0;exitX=0.25;exitY=1;exitDx=0;exitDy=0;" edge="1" parent="1" source="ZGsex49RbRiVFDESX9-7-26" target="ZGsex49RbRiVFDESX9-7-54">
          <mxGeometry relative="1" as="geometry" />
        </mxCell>
        <mxCell id="ZGsex49RbRiVFDESX9-7-26" value="" style="shape=image;verticalLabelPosition=bottom;labelBackgroundColor=#ffffff;verticalAlign=top;aspect=fixed;imageAspect=0;image=https://cdn2.iconfinder.com/data/icons/amazon-aws-stencils/100/Storage__Content_Delivery_Amazon_S3-512.png;" vertex="1" parent="1">
          <mxGeometry x="100" y="657" width="86" height="86" as="geometry" />
        </mxCell>
        <mxCell id="ZGsex49RbRiVFDESX9-7-29" value="Editing/Composite Scene File" style="text;html=1;strokeColor=none;fillColor=none;align=center;verticalAlign=middle;whiteSpace=wrap;rounded=0;" vertex="1" parent="1">
          <mxGeometry x="224.5" y="697.5" width="120" height="20" as="geometry" />
        </mxCell>
        <mxCell id="ZGsex49RbRiVFDESX9-7-57" style="edgeStyle=orthogonalEdgeStyle;rounded=0;orthogonalLoop=1;jettySize=auto;html=1;" edge="1" parent="1" source="ZGsex49RbRiVFDESX9-7-32" target="ZGsex49RbRiVFDESX9-7-54">
          <mxGeometry relative="1" as="geometry" />
        </mxCell>
        <mxCell id="ZGsex49RbRiVFDESX9-7-32" value="" style="shape=image;verticalLabelPosition=bottom;labelBackgroundColor=#ffffff;verticalAlign=top;aspect=fixed;imageAspect=0;image=https://cdn.iconscout.com/icon/free/png-512/docker-11-1175228.png;" vertex="1" parent="1">
          <mxGeometry x="344.5" y="838.5" width="90" height="90" as="geometry" />
        </mxCell>
        <mxCell id="ZGsex49RbRiVFDESX9-7-53" style="edgeStyle=orthogonalEdgeStyle;rounded=0;orthogonalLoop=1;jettySize=auto;html=1;" edge="1" parent="1" source="ZGsex49RbRiVFDESX9-7-33" target="ZGsex49RbRiVFDESX9-7-26">
          <mxGeometry relative="1" as="geometry" />
        </mxCell>
        <mxCell id="ZGsex49RbRiVFDESX9-7-33" value="Render To AVI" style="text;html=1;strokeColor=none;fillColor=none;align=center;verticalAlign=middle;whiteSpace=wrap;rounded=0;" vertex="1" parent="1">
          <mxGeometry x="225" y="873.5" width="120" height="20" as="geometry" />
        </mxCell>
        <mxCell id="ZGsex49RbRiVFDESX9-7-36" value="" style="shape=image;verticalLabelPosition=bottom;labelBackgroundColor=#ffffff;verticalAlign=top;aspect=fixed;imageAspect=0;image=https://cdns.iconmonstr.com/wp-content/assets/preview/2018/240/iconmonstr-sound-thin.png;" vertex="1" parent="1">
          <mxGeometry x="580" y="642" width="50" height="50" as="geometry" />
        </mxCell>
        <mxCell id="ZGsex49RbRiVFDESX9-7-44" style="edgeStyle=orthogonalEdgeStyle;rounded=0;orthogonalLoop=1;jettySize=auto;html=1;" edge="1" parent="1" source="ZGsex49RbRiVFDESX9-7-43" target="ZGsex49RbRiVFDESX9-7-23">
          <mxGeometry relative="1" as="geometry" />
        </mxCell>
        <mxCell id="ZGsex49RbRiVFDESX9-7-43" value="Sounds" style="text;html=1;strokeColor=none;fillColor=none;align=center;verticalAlign=middle;whiteSpace=wrap;rounded=0;" vertex="1" parent="1">
          <mxGeometry x="520" y="657" width="60" height="20" as="geometry" />
        </mxCell>
        <mxCell id="ZGsex49RbRiVFDESX9-7-47" style="edgeStyle=orthogonalEdgeStyle;rounded=0;orthogonalLoop=1;jettySize=auto;html=1;" edge="1" parent="1" source="ZGsex49RbRiVFDESX9-7-46" target="ZGsex49RbRiVFDESX9-7-23">
          <mxGeometry relative="1" as="geometry" />
        </mxCell>
        <mxCell id="ZGsex49RbRiVFDESX9-7-46" value="Color Grading" style="text;html=1;strokeColor=none;fillColor=none;align=center;verticalAlign=middle;whiteSpace=wrap;rounded=0;" vertex="1" parent="1">
          <mxGeometry x="520" y="747" width="60" height="20" as="geometry" />
        </mxCell>
        <mxCell id="ZGsex49RbRiVFDESX9-7-50" value="" style="shape=image;verticalLabelPosition=bottom;labelBackgroundColor=#ffffff;verticalAlign=top;aspect=fixed;imageAspect=0;image=data:image/png,iVBORw0KGgoAAAANSUhEUgAAAgAAAAIACAMAAADDpiTIAAABelBMVEUAAAAAAAAAAAAAAAAEAwMAAAACAQEAAAAMCgoFBAQAAAAAAAA9MzMpIiIYFBQHBgZPQUEbFhYgGxslHh5WSEgkHh5URkYiHBxcTU1dTU1eT083Li5KPj5JPT0nISHuP0jyQ0xdTk7nOkP1Rk4fb9cedtzqPUX5SVLkOEAdfuAtJiZDODchYs48MjJyx0zgND0gatR6y09lvkdIPDxtw0pXSEhgUFBNQEAhWshSREQchOU3Li5XtUL+TlZNrj9cuURgu0YiVMVbTExHqj0hZtFSsUGBz1GK1lQjT8FpwEkhXssyKiqR2lbcMDociehBpjuF0lI7ozkbjew0KyskRrsZku8kSr41nzcumjWX3lkZl/IkQ7ib4VskPrai5V0Ym/UlObEmlTIWoPnWSUjGRlFukqFlg5ZcdIt2SEmPSEyrSE3jSVFVcbynUHfDcEhTSS+vk01cYTFJM2hCLE0/QJl/YZlIOoGmvFRkejWNrU1hmDw3Ua5OfzM9jjS2mD3HAAAAHnRSTlMABhQLITMqT0Q6WmKOjoxycaC2ypbqstnN4vHm5su/76qFAABNrElEQVR42uzbvXLqMBAF4GAyGaejYBib7jyEt6PZt0l4//5K2NL658pOqsjy+YRtqLVoVyt4IyIiIiIiIiIiIiIiIiIiIiIiIiIiItqx08sbHdKpxyA4pJN3Pp8vzcXdGQJH42ffqRsRaeqzwxA4juHLX73fpHd7rxgCx9HPf1Vd74BAvPulqpgIjiFM/6UViGldCHAROIBh9f9sBBA/Yhg0n8wDxQvJ/yrwxA9zZSlQtrj639ETCwKWAsWz5A8j6NMAS4HiheR/w8IkBG4sBUoUkz8Ec/J6sRQo2CL5L4jAD5YCJQqNv7pBkgggpqm5CBQj9n2hCkWKDAUhu8NliX1fqGKNADJxZR4oQEz+CvWvjUXA4ZawHJb8Fa/Zh6dICpUgWAqUICZ/1WH61UuGgNiGQFgK7N4o+RsAijUSWoNgd3jfYt9XA8QHFKsEwoPiXTvFQ1+dgCLcoKv7QR4U71ns+6p2aqARsL4MSGgLgt3h3bG+b6cWAQaKjWpA/CXibzwo3p1h+uu26zoNYw7qIUmW+4G2ZimQv5D8P26datf522LmEZ79hRSR+Zbwg3kgcyfnlfz9zDvaX4slAL+pBIDRQTHzQMZGyd9m38+/ZQEDqP5oQzgpBu/cEuYr9H3bUe73bx3VWRAg3qGAboQAD4rzZ3/2Gb75NpAoA/uxUQfERMDucNZi37dzdDYcDavAEjZWARlaQzwozpf93ve/sw+LgQmE62dpAOwOZyoe+oZ5tjHaDay1BLZ/LOKwFMjSKPl7iwiIhUBy9q0xuGLYCPBvRLmx5G/T7x+L4WhoCSTiwFHo5lFxxO7wnxsn/1EELIfFxSwC8P38hlUDaeGIkKVARuKhbzensxEe8cPg6/l4PJ5fk7PiFBm3BXhQ/I+9a0lyFIahNbtZzBGmq0Kx8AFSQHnBJlcJCz73309s1H7YBkshnU4P8bMxJsHDVD8hyRImr4dL+sb0r2sCMgIGla19187oeuQHRI8OF9kVeB3iuG+MC7VBQYD4hnpsgbF2waFtNVDjYZGcKH4tfiHpq6sVgOmoVMXcGVTrwdkBSX7gtuVE8QuBpG8Sl9ViUPRTG2IydkD4xFhdm5qjwy8Bkr4M/dSE9BdVRcYfCFwBJi6IdaQ5UfwCfBr/vxVwlxkoxnYLYw0RuAjTAzlR/I3AYp+PSoiI/2FqtzENxH8qILTQAjk6/L3w4776ViT0L/nvr62HlCvAriLLy4i+FYj7GuKJfIkMQALqruXR1RQcZtNDNxTelDAnip8JGH9NvPMqwE8RjK0Mo+FfKgT5fZPfAhh/wz64pwMB/TD+DBAdFiYJsyvwdMD434jXZiPm54YHpn5CdL30fQKm5PdNhnie8dcWMP4iRwBTPzkQHU7JAOgvcnT4ScBKX02oSAi0VAMMqt2BgVQAnyDKK4qfB6z0XVD/uREYbzCK+8pdAZcfuDCPDM5bThQTnpH01UtUpkYaQMuNv9wVwFyAyxDlZ8aeQT9N/TTgywE3E2CNP+8KFHekCXOi+AnG30z9VsinYnsGmjYAU78HoAZaRUhNDOcERA8M5UTxl6z0Bf1rIOKpmr7M+Msx9cgOSbKEeRnRlyZ9N3mHEgD9CyDu+yDgCrBGgEpOFD/Z+AMVVTcZgCSMyinxdjcUNWospOsIDfKU8EEg7ssDU4IN468iTrEDEqcjUWwLIwN5RfHj7CPuK6G/CmLDN1DSV9nSunbRAbU4jKuFos61B//Jh0WyK/Al2v+PFgJzApKCy0jMBTuCx7dHNFUC2EeiGCLArx7IieIvMf6NyAJUtjPzPygQrjyiqXgigK8hBSh0nhs2Yja4CeK+yK7AE41/DMoTkfFXoBW+YCQV6FPPVwIKo+gEig6nDEGNBSR5RfH+pK/WjS0yID3UdxF1a/cy6A9UgMLhQjw8zdH1wjRxjg7vTfr+9RR/QxsvA/PUL6YuUvUqZBqKIVQOoUrAs8O8JbAlLyPaYfwbaABbZaiGk++5gdkEzQax2MQnq4UAlYPV/4LnxXJU4N6Vvh832k21tN9lA2zcN9D2IA3f4YtQBVC7PR4yMc0JAv59AnAH8w8TCoz/H23IN3c9bVoqCcb4KxC4YNOnPtbvUAFLuVgfr6Aoul6SIjTsZ1dArv0bAtFOLW8HqhGEKtC03KuQTOpZgPDUeOVHl8ZaniPKiWLJ876GZ8t9YwFXgAsIDFM8pbOAQKx/BsAcyMdPwyf7F/a1InkZEbvSd+Yd5DfgHp019NdNcvE5jkEmvts33kSH8T6BhAjk6DCn/Y3xB0gUSAJMkzAEly5xhycIB6kPje/qQjYhNMgrikOExj+WAQjBhvEv1V2ICX1wfDlaOyDRA3lKuGn8gRU1QCBJCIy/lDVTH+C9pWIqMB9Sorhg1g/U2RXYiPs2m9DzBk+QGkLfgV2mLJlEV1w2ZcruTaLYQDAnvJXsCvhJ3wT71Nh7H+w3mPrJseRwvy5oITbBvzvWrCOwjArkRDGMPwdtW88A2N1wWrLCkg7ecRz1WsaCBGe06LWnUfpzdDlRjMU+HyL2oQAwF+gnYgC7yBzEpjsYg/OwXy0S8VLTIFxCRHjfZUSbxp/xBZEh6DuWkPgD3/jLFcBSYNLepIkO81kiU9/51dMu6asbITS1MP677Td3AvM9C4oO84Hh940OE/2/YfwF0PAI7dTv5+JkosOiJ4dnvNn7Jn3jfzZVBLCv+6v62bj2gqCASxK/V6LYJX0bgx30N1Wnfj66PhkXrJeRoXdKFC+TvmdbzP4eQdBjqf4HlCO9Z4wxA4b+93EFXNz3PHMvpR/40cbfxzQQ+SkrQM1bvGQKi31udLtqGjH9/VWJ7v8foiTIFUgA5B8/OuySvs3ZwPJvi9QZWJ/6lYbtkjol9XDwfJRUcUl0FCWKU68U8CICx/1hQhj/8wxwT11OBGzct1Sl4zXo4zM6oGZjDPoA/1ncdyKwev3yNBYiLXD0Z4dh/IHGbGIF0E8gJqAHRJQ+CWVIDBARzAsBc30Q7/1/SkoUM85gfeT3TS6N/xmgOQC8gYQz0HclUYq9weJu9PCpmHH+3eMtHhgPYeh6Yp8LDB/02WEkfc9LNLQTGAA9Lv/g6MfEEHAOzts1vvya8WMt+oXyQ04JA+MfaAC4g6ahEk/9yh1w9n8v2PHy69voMMO/qQd0BVzc97wGeAIJ7X+1ZCQqAX2PNrWzAmr/9SEN1+HC5gjrwpQjJYph/DfIp1vfxQOgDghVR3/RJEgDU1f5pO0ChivJueH1Y6hyjg4nQA8KHMcVcEnf5syggRawDYz/KXUbqhTJCr1dBUifFl9/Uw7GOvnkMAUGj+IK/HJJXyH9jn1nEIYJ3MugqPWdwD1g+JVdPzyaBj44bHGARPE/9q6mt2kgiAoEOYHEAXHhYFNKODipUAlB3BDqhd+RHJqkrXrhwL9nxnnel92x1w4I27Hz1h+76wzFO89vxut8QP2fM/g3oEGRDTL4W5+w2HAfcczRS/0/UP/3qQMwkNnhhr8/YPFmckJxwD30ber8r4X/oQQI/rUX3H8Do0xUI46GpgLvYveESy0n/olic+vXEAdJAIM/YfLt4zXd1rlnn+UWj7P+t0i30acDjAWnmgo84bxvdozvcU+I4P9v+Nhre0kFmnyphNZO8EGx+6Tv52PxFTyQed/0/bCxum3whOgkHxQX6i/BP5PlGPdjK/O+Y8D+hwmj94On+KDYBf9s7//s6CRgk/ztkKa6dAP+/eYv3m0bTQwuT+gTxQz+WZbB+0ciuPVLtcTHlS/EPvW7sfnPsH+flOAxLEAaTQWWuiIPOJFUwM37Znt8ztdjLn//1q/eeWQIX47eVpwf//uoef4HtKJHog+Kl4UOnMbsMIM/rn54v3kqILd+hdOKcWUdQBt74wZUYMO6A+1Nv8AcY/3Iv4+m/3+hHffbZfQx8V4CTuGWkMFf/K7AvnkmsNnZga5wRKVD0ub2zQnx738/5euMPeNALBPo+fdN8sM+CP4seUej4J9i0M3AAxjAWP0U7eWWsO4BATSgvw+Ki+D/svC52deFgW/ryEBG+lg/afv1bd27hfr8oNjN++4lHz73EgHZxoN/ko4bCd4zVoqlCwS9TAXcQ1/1tdV/kCGiApkE/zN2m+gXi0AFeveg+Il76Mu8jypABeANQVnwH/v1v8fqNjoxhDmhfs0Ouw/7wO82/qOBtST4b9MzCsRTgaV7VtyX75t0wf8t/E8GsLidrEYDvm7OF/8BEpkdjgE3Ar35GFHufw3+h/jsx4DDHQNB5tT/DA9JPitQ/6i4fHa4XQZA/d/4rqfzfQXYSwAqcP86PcNA40Dtt83GUoHWGKD+13lfH2iHEYCCgI3O++6RmIVAu7w+THuZGtguGyQC5bPDr1thAP3/KiMMC+jygA6KzTStgB3LxB4TDNM+UQYk20ZvHS7jwKtWGIAA8LQgwDzwPiM+qiEH9NYPIxG/gLSklRfXAO33x5LVpjIRWPLNIqUEeNpOHoAnf+r8eUgBeJybgBDf1hgWnDHqib1KUGUbfc50cPaOMdFUgL9DZQnQkgSoAAgBqAAGNgagucUQuEFAGxWHBAewPyy0tfbsPTl7yoZ26VdP1zwc0MUQ4GkLBIAAPIMChCyg8tvp4c3FoWN5/myzztE6ZMOQ7b1ju03t90uZVODVszYkAALwDDOAYAER3hVyf7vyTp519rFfgWNsD9w+0YL+PBVo+JCQM4LCgFYJMNdCCbAhgCX7uvUHwtYBf4AAbYzMPkkqU4ElVaALAuwjwEQIAMwrKcDdFicXHwgUQnv3XaO03y5jEsBkAASY5DHgvxKAAjChAlRQgLm/qn/Ck4vUoYYsbgzRHJV9IrPDtT9NzEDwYqIS0BYBnr/0cgCspbhd80x5ctH6Ybc3MGOzT1aIAzESvAMBnrcRA0gA5n8xCsi8L5yPbSkNTFXAPtTQHJl9dSpA93dAgIlVAKwB5NbPU0Cs3EH9WE0DnvAglwHb0xwLHxTH3ibwTgkwaZkAzAGwGtyueHreGXs11qmYIbyraGz21e8dpvu7IADAq1+LLsC3tX9l+NGQLfYCaDNuGBEdur2nBDVxYImlEwUw2s+GBn+CI2HBTv9OaJT2Vf/EdlnzY2TdKAA9PqcCMPibcwxOtBrm4NjsLTbRJ0TtE2DOBDDEHMHfjgQ7bCZQipQr+0Ziz0yRqUAErSvAnALAAlKU+xwVYhpUU2s0TfUIkQ7Z3jtsjFa/I+8U6CYEWAEAKe7WpWc2naLNfqI4xlZqXjeVMlR79Fb17B5/XvdKAeaM/lYBZrNfO8/XqNo+HmE/+lDjYBb1IdtLG4t/rTz8vL6+jrxruDMFsNDum5ub2b38z1F4JmEPm6yyiW1gj82w7L1CJqA8/P55LQzQj5D1RwHmuPptyZQAnz7d3ZPBxuMo7GKdV1HQ55sPzN6Oj+tbPar7BfhV0n4QIJsLqAFGAT4pBdY4IWzCgp2pV7xu0PaVZfq4gP9FAQr//+ieAOp+UKBMAZQBgl87M0T1JXpwoPZV3ar+AhBABUDQCwUonD8vVwBlgEJSgeD00D62eNUB2/vNlQZ/9T8IoN5XGegDAbJ5jgxE8O8CHAE0FchP61yaX/voleC/WPxcFP6nArhA0L0C5KVKARwF1sx8bfg72Nv+SFQdhH1MEqYP4ntZQgWQku/6owC6ZqECkABSk1SglvuyoLPqpeHRAdibf+Lw1m8hKNxPAjgJ2JcCy44UABzgpEBem+0lABS4lMo9B4h7hXdHFHvN0O2nnv1K3K+g/0mAd7rqpgcKkGlBhYvMBN6AAmDA5aWmArzzlTr4DpgBsv0jst89LuB/QwACP0LUaQ4AZMUKIRAFmOUhwDHgUta7tZ5cFByg0mMjsZfgDyABAL7T95ABJUGnCpCh5As2ulABgEulgKQCZjCOxBjsNfh7AmAJwEig2w5zAIBRABACzJAGMggIbu4vpmdEsfp9tbgq978SwAYBxY/OFQAa4HIAQSABwN39FLiYXsgSqVdg0PYXj1fwfjkBvgQKABnoOgeA/FMFZpCAQw1wFFjzhOMDUjWww7V/EO/nC/1P90MBLAW0dKMAmSs5KAq5AMyMBAC/dmaAOAgK2cUHdpj2D7+vBFQA+J8MoACQAy4WdKAAhMsFkQfOFFCAgAJIBTgAAbTfHEOb/QO0Xz3u3X9VcQsgEP+XUACzQu0TIAsVgEIwQwxQBP7/kG/u7sOBKRtQ9tn6oOwFcL8RAPpfFUCLcMCiAwJYAcBeKrMyCbgkBWS5W+v5W2AkdfH7/LpuB2T/h7wrWnUaiILfoli4BbVWKFgV9Yq2IFaK0AdFEIyPt6UvIv69e3anmexOsolVb1bv7LZJ7d2XzGTOObubCveXAEADCA5AD5BZ4RFyAE0BADgA80BUgsQkpAK4JtISO8W5tP9k/O3K0Q90VgCGxSJYQLEOEA5wgPZKkB4wmTwIqQCcQI5y9/CMn/+D8S74z0/0d2eAcABj31SgNjB+DmDvQKBfJUBMDJYKdDqpXjFea578++MPc9APAwBaDOD5wltACARlOQBEoA6gcwF0AOsTlwrcaBx+BP7n7QEACPw/9/RDACKBMQRAB8AHOkAmCAAT4FuFG+Js/LvjK0f/HPSrATADhAAC+ZBBooECZgKpCAigezpwYi9rvu9v30xUx7kD2Bf6hf/aAXwiUIQDcBWwwwFeZfLAicMpFbiREjjMDaA/UwKCfwckAJDBS/9p9ByA9q85QLwqrBIA/zcyFbDgD/+vE4D77QYA/uEAxjtEYMQvRnWAZA2gxhtaAD0gjQHwAKYCNwjVMdAvBiD8qwP4V5QPjuoAZJ4OQAHkg4A14EalAhdGP/1/np8CSB0gvN06nRkW4zoAuacD9CogsYDpZDq9IanAxcn90YcaAByAaQCPY4eAmnpWAbEHPJBCYCJpgGngJqQCrvRbzYG2KaAO+uEAUfO45UuC0R3Asd50APLPJABICgHS7zzApwIXyQ1z+8J1ftbv4s9lj6+OTfo7FZBMAUEBgXe204mdjS6ANAd4k4SAV8K/pAFTw539RXTh2o4OvKj4zL8peDyCf9AAzH8+2AGetjmAHUrIAWK8yScBRNP/oYDHV/vMBZaL3XYXljr+8GNl3K+MfShgPiwCuK4OwMOiCAdoLAe+cQpolIKdFgAHoAgCrr7ywglIhIAXvsTx1Y/VivbP9C8jgEA/HOCpOYC2MB9UggAiB5AsAAqQKMA6wL8B36qL/wzV0ehfwf9ZAAwMAAgBC9FAHQWKEABmhLwA6AAqAALrAZAATWCyv/ivcFgFOP4pgXYDUP6bDqAKuOWTwDIEYPTTAWgCukEY93+qAKN+ilTgP5LA4Udg35oH5n/n+QAAgH4TQJCA5gIlhoCGBWgeqHNBLAQgAEsFLv4LVD+2q23g34ES8NCNwB3+7wC3T1tRDhBM4JHxLw7QviKQOMCktoBBqcDMegbjj6+ORj79HxiQAcL/qYAFICYwigM8yTjAIzhAflGQ9IsFQAKPh6UCM6GDx7HHH1bu9gf9rAFZAfYHABHASw0EIySBT7IhIChAJZApBTkd2BDA4ygVmKFHn+VcaBln/CwE/23Nv+uEJoAqAA0BnRYwShXwpFsDj0IMSOYCHljL7gxhGUAFPEYqEF94XnAccAqO8Dfk5trHw/3X2y0iABIAko/DoDnAAJKfqqCoHMCHgDQIdD4mZKAD2KvpAR4+FZjJ9cYV52nGmq9xPD8ft4YoAhCDMgAuA0AAhBSE1y0Ad/8/yQhA0kD5vYB4MojTQaSfErBUYIbm38AJydHbj99Z+wvjARmPfliBfweWAFwCmg/YCM4EUAQgBcEYSeAT/9YaAtqzAIkBsiSgeaDXwLurfU0CG6nEuQHnZAbDrnd89X0b7L8RAFb5SWDyrzWACEBUMEISaB4A+lUA4L9/TWjCJtOBcAB7s1Rg5pFccPs06yKRR2vXN746ro1/BoC5NUqABtCzEVgcQDBeFeBwD61NABIFXsVRQBwAYBLAPBD4VgkxOAJCUnw0XMv449qBAcBD14D6S4B6DhhQ7j3GcQCj37/aHcAUkFYChsxDAiwD4jyQGpjuwxUnSdZi0K75DT9fx/jDd8e+NTiAZICcBOAcYH4SMGjg9aLDAkZ0AHtpJmACYBQgjP787kCABuA68c6lAkIXOUKLqZQ//svjK6PfddCfTAFwETAXAV5ICSgCEA2M5wBIBrscAMg6ANaEWAcks0FT8O8l8HVGXgRKnH77N8dX5v4wANz+YgBKPwSgGWBsAK8z9I8hANz9DqgIxAGggeyDYuoAOhtEC0Aq0MEaOolq663fDx+f/fqwBtQAWALqPqD8HOAABxgnBzDKaQD2SgQA/mMFgH7dHlhLYNrMA3H/UwIO030LBcqsgN8q/sR4C/6xAQCg3yAZYN9GUNJPB1CMkQPg3sfB6LcjBcBCgJBSEPTLfCAUIBp4Zwp4//5qP4AZqdpp3WIFvzpeR1rwj+9/KqBBv706EwBA7//X1rMCGMUBRAMGFUC2DqAFGCgBVgKB/SkVYBKwVOAcKPXnjVcc35L/dcQ++Cf96bOA+D8htAQ00ACKEwB4953NdQggkwhqFGAlqJNBGgQMLhUoB4c1+ccckEEjANhnDZg3APJfoACaNz9ODBCAWkD+9wJiD4ABcDbYXqAfEnjvUoFCcPj+9u2aEkgqgFXjQYDMrwFIBfAC/CMIlCcAz7kdmA26ox0ogL5FQXlORBxAPSDQ7/pOUoE8NtYFvz2+OoJ9rQC0BMzzr6tAZTsAvJ/1IAyAIUALAdCv68K6NWgik4HgHxJ477LBrxlyNvodz3hy/ngEf8OaGjgFANLPEpD8UwLtuwBexFMAtQCWBQkgWAAnBHly+Ug8IPd7AUB+VXiqFuBgqQCZSuncyHfK9ebM8XR/Q0r/ig4gt/+QRQAxAIOjvzAHIPUwA8wKXUb8t1cCWgh0W4A1VoInC/AeEFKBDWgRyvS7Df6Rr3PHW+mH2z8fAFgF9D4KSPqV/2eB6WVBAqALUAZ0gKFzAUTGAjQNQBTYfWQqAHJAGo4AqcaRf7k5b3xl7k8DiBXAjYCyCKAKSPkHEv6fLReumQQKEoAnnzkAPpF/R7/rd6OHBDp/O5BQC2gEAbIfsLNUgLepQG5v+UtlnOhUw7EmvzMD5LPAhv5FIIAZAAQgDrAsRgD3Yh0gDlzCAobPBagF2CszFwB4ASAVoEtHR5LGP9CYTsh4goMR/NMEUGtA0J9bBHiY2wZC+p89WyzLSgIDOB9EHVw2FNC1N6zj90OJaFEwygJqEzhht9udUgEjTUEL4N9sQuOYTe/4GcYj+H/A/U/6ZQr4jI3gsg8k8O8Q+F/6t3IEkHEAQDaIqgVoITCV6SDr0XywNeuGHVMBkiznhJDNs/7x1RH0S/zn/c8QsML9374IMNwAzAGsgf5lQQJgHBAHGDIdyEUhsM/poGRJYKppILKAneHq6yYmDoCVZ86J/vGzw9sPH078r1unAGQVIF4EuD9gG1hqAKYA3vtBAsUIIKoIDZdtCujfFzDhoqDWAnEZgMkAKsBL4P23qoW084Wg/2bB39EPrJMqUErARgnQOQnYWwIyBCxhASf6lwUJAPzDAQyRAAxUQPZh4WGTQUkpsIMLPN5vUszYz0AysvL0+w4LoAFwIzD4t44I0KwBc9uAOktAswAjv04CyssBCApAggCnA2kBagB3pBSUNLDFAgwfP1/tu1mfndUpgtnR8U4D8AFAU0B9FHD4w+C6DPzU839yABgAdVCUAMz/kQTGFkAH6LMArQSJyAHEAswBvAQ++lSAmNXtPHCkBX8xAPCvBsAJQNcbGLgIxFUAOkBAXQqEoqAgASQO0CwF4ABSCOSng6bWZYNwrwTef9sMM4B8Q8dQc/8A3v7WCdIvT4JICjDYADzoAFAAsoGSQsA9vtMBsouCjAG6MUS3BmkiyBDAJMDot/Zu/6dTgOr46UN8/zMCkH7dCAgDIP/ZXQCZDNALAKgTQMhgWYAAIiFcAq1rgvwfxbQSpAUwBpD+1vnAOAuABCwV6DQAHAemBQYL/gANwL/pFMA2PwmU3Qfomtz/KALFAYx31ANFOADhcwAJAjoZ1G8B4L/jOSHSH3vAx6AApAL08HOAcYfvnxyaDsAEwF7RDECyDWDwz0HRALgI8BT3vzgACgIaQUECoAP0zgVQALo/tM8CqAB6AC3AsPumbM4G805UoN8A8wdA/xYK8GAJsJISICsAnQI+TQKrA/DNsV9GDtAugMtfyQL0R8T1UUFxAKkEjX9I4DNTgfNRHQP9n8g/CgA4QHYf2PAfhKQBqP8DS2IBGzD2y8oBmkmg67EH6FMi4gET+eUoWRIiEgWICXz+cvW7Ejh8AsA/6bc3AvzDAPI/B5YvAWgALAFFAKgCIIRiHeAnc2eyYkUQRNGfURAX4gQqigqK84AzDig4LBU34u+bUR16zDxWZOvCqqh6Te/vrRtjRjYOJPqSgLoc2FEACVAQEEZPqAFPFLDYu3fvqAr8C/zfQR8H8BIHcOACfBKEOUB8wGQQnATwilPAsGsXbMSB/58AT0oCKBFwOdD7AqwADXmfEcBgQBrf/08GvHqlUGBuOP+3BwRICtAEjlc9IHWBAB8CNPyLEPDS2AWEARAA7NMP7C0IvPUbAYZcsD4tjAioGEAQgAiMCkA1AA1oHPjrUCBTv4b+WwkAnSCMdTDeB0QOYAfgkwB2AOC/ogDxbkGAJ1YAE+C8J0PquQCOi+MBqpOCyQBXg9CAFgkUoUDh/N8u6BMBJvYSADKADn7uBKjnwOZNIBFAFNhGAWCACLAqAeEC8AIigCXAUUAXBlgDiAKTAKEB7xUKTJ1/wJ8CgP7HDwEAf5UAizth6klgBAAPkPibANSD/j8Bnlxsz5NkgRUABgT01b4AKLC2PTSbQpiaguQB8UsFQAMWa6HAscPY4vwD/ngOjBQQG1JAUcA9ADcBrAAIgBxATwCrwH8nQKAv/KUA510LSFMmqJaQBcDDYSoGpJEJvIsn7P3jz4ekwNe3zQL/eCkBNOvmgLQNgO9fJ4FcBPZRIAtAwl8SIIPADQhw8Umz5IAI0DmBiQRAAKwsBmCeDIEEr1CAxQ5CgTn8XwL9BD9MRcCbVoCAnxQAUwBQ7ARXDQgGzBVgAwIAv23B/5aDgNka+fGo4JFpORAfQBDQ3t4J/CJAKwx9nFCgqX/ADwUC+jcIACUA4Pdh4GofZO0ArAAJ/+WKAJsoQEpAPPFaAcgD3BMq4kCuEeg1oBgObEZPiIJwwt/egP/grUOBD039w4CfCGDIApwBOAJEAKgB9YNgcgAqAu9aAYDfBAgG3EICqAZN9wUQBjAerPWR6/VgegIhAYQBqQEKBeT8CQDHGlCOAfgwIDWADv9yHZAdgEoAZABNAXZJgOBAvFKAMGeCdyYF4SPlhVLA3++M8WhQ2pAHJAdWQ4Evb7E3SMBQA7rZU0AOQPsg//4wqBXg2l4VIGzRAMIBCAD88VaLwzDtDUv44zfMB0MBagG0hMgDUID4/pdfhgJy/qCvFBDzJHCgD/4MAhclgPk2iN/lf9cKkCSQAjgRoCnkO+WcB/iIANavDkz8KQe6HIQABP5BgwwF5PxxAcP3zxjYb/Df1BTADQmAHcAsAmAMIPHftwJAAimAnMB0g7CCgJUl4lKAhH/IBKgHg3/aM/wA6g/8xfe/ehZQ90IfagzEc6BMgqP/+ybAxXQE8QcC4ATK08J1LQAFcC3Ap4WhwFgQlgYQCix13zUBcBEA+HUUWMsgSvxXHYBrgJd3ToCwjAMggGsBDgPr4bCuHzDWAnxKKOzB0BIaNOB9PFiEAvc/CH6XgPj8VQLQOoBGAb5/GAD+UoAB/0sKAC//UoBz+yVAcCCfIMCYCBQ7Q3AB2h/anRRTIlApQJ8KvpMEpH3rnL8VIOE/SAKGBMAbIeNJq7uAwP/LXANE/xd7eO3CuZ0rwBMUYJQA7wu4A/wOBD0ezDmxYkL4sXwABWGigI4Bnwbw8f+Sf4WAYVwJUH7/4G8BYAyEQeCuBhy/h+0NnM/tlgA/ORDvree9BJyPHxbwz48JWQFUD3YtAB/wGCegWkBJAAlAwJ8C8KeFkJgigGoOsBwEJQkM+FMAHjb4d6wARAKNAGkqBlEQdEfADPBZ0aRAsTpOYSD1wMUPvEcDIIAloO8CKgJcEYDDdwGvnu7mAJUCEAL+osDDVID22wMB7j65u0KA9ud5xwCdEnJHYH1fAPAzH+h7BOgJeUBYmSBRgAnwBvyXEJDTwCkAKIBSAAUAfz0JzhQIDiANBTi3DwW4m/jLMghMDmQQcOhMEAoUHSHXAx9QDhxbQoMCBPxVDBD4ZxEY/08RyCcBPAMymQR3AkAEyEkgYsDLB+ijAO1PvNu7gLupApaA5wE/DNBYgJbGTPcFsDDCEvBAbeGyGEAuaAK8oQ1IBOA5MB8GJwPwWbD5SnA3ASwAzc4F7GB/blsCVBIQBEgOlIMhd8qCMIMBlgAvDFBTUG1hvEDhAogAOgWo1gEpBFAboG4CaQggjSLw8v2nArQn/mzvAp60p5lE4EABFAVU+wLq+dChIOwFsgQBYTAAChAGqBbgGIAa4NgEtAPoPn8NAh96G4QjgDT8f9i5Zvr+t4sBUgLutrcgAGMB1TkxJMBNQV8se7TYIY0IUAuKV4kABFAAQA3ABwHu9d8/60Cww80BXeFaMDUBgR8KpAKkAGzvAgL+IIHxDwJIAlwNOvyNYtoaYwkI/PECQyKg8VACQQigKpAHgT0H2F7agA4AagJIAKQAwI8CHMR/OwgC73bowwEI0B7CwLREP37ViLjvEimOiXg+1PXgIQ60AhAAvGUOsD8JKAegOfD5NhAXgS5VAkAJYKEA6EOCc9sRICkQrxQgzEGAnUAdBRAGxuP9sS4GJP5QIM1t4WYQQF0gKcBNFwHD1AV0Duga0OQsoPrAD/sYINAH/ni3I8CT5eeE8HlKgFNB7JCbw3y3tBKB9fWhOiXiROCTHQA9QDIA7YP0WWAdBSwdgJqATgG6HBAX0J4kAfHghgqQFOgZ8HyxsiDsOFBXC3tnBGcEiAM9G6bxQNcCoMAnzQG+hAPVWTD2gVEB8DKIw68EVgCAAKQHaARIwwkc/LM9AQL9u3IBz+UD/np5oBWg8wB/DgI0IKxaAInAJ33/UgDGAFAApQDMAc52wiMA0zlAK0B6gUH+z21KAFwBBFiXAEZDVA4MCqABuk8sy4EpAdoeKAqE+aAYcWB7IABdQJqAwJ8K4JMgLgEQAFYlAJ8FdRcgnvT/8Xv0uwIc/A1LZ7AtARJ9koKnSYDnRSbonlC5L0DFgGJGnLawCsIqBn3S9x8EsP67CMgosIoARQSA/h8+AkgFeDTEAIsr2EMMkBbwQ4DBCXgwYN4TsgTMl0cCP9tDNR+KBgwKAPxhoB9vcRCAeyHxAJNrIadNALpAaVKAjAR2EAOE9XXhp8kAuoKrA8LuCdWJgOOA8pQImSBRICfFUAAJwL1sAjoAZBuI74VkDORQGwG9EZgM0AJwoABwgIRwexcwZARPkwEBf1rlA6pzQiePemMAUYBHhEf8nQl2PgAXkArASYBSAXQSbDIJ7ggwbG0hoNB/FALwqBcAXMEuFOAn+EmA58kAzwXEM2SCNAWr9aGYJ4PakxLgo4LpBrqGAMeFP/kkAF2AXAjlFBAHwL2gngPFA5QRoI+CX845wPhFGGgFuJDPuT0RgMpgEGAtEfinKEBr5H1OSMUANKAfDiQPQAF+1YAJAbHiLCg94L4EUKSAmgTXUQAFgI/iaQb+2IVUgf9PgOOrDAgCPCUR6DRAhwTKi2U1H+qGAOeEnAd4hbDLgZ96ASD+ow/cnwSKnx1AWQKY3gx/CfgJAHMUOL9/EyAVYCsCHIcBCgZxAWgA8BdhQHmdkKbDqo0BoQAOAykHpRUuAKMIRBfQK2E7BagEYK0G1K2DAH8pgEkQ734U4G4qwEoqOF8iHra6P9SZoFsCw8oQrY6DAuECuhIgGYAOgzIHJvgJAP81A1hTgIekABDAtkUl8HgjwPE1GXi62N92BGgJSAKOjrNB9VyAp8PG8+IoACXAlZ3g3gYDAegCrreBJ0fBvBFWChACsB4DpCf47wRoFljDACzSwDIT7HaG9IkAxQD7AGIARQGSAKIA1QIYDQoCqAtIEyDR1xxQ//37KMBcAHwUEA/AHFAHf6EAQYAtYoBmgb8pcBAE/qJAqQHzEXFMR8WqcqAnQ1IFaAiELQrQ94GAnxhQGaDXgRj+swH/bWUA5WFg5P/gwQOULmArBYhfLwN2ASQChIFogMqBvkjA2HthRH9S0E4gXlwAXcFGAAvAyyIB5CgQJYDBA7gCwFGgtRrgyiA4EWBYIQCbEODu8mQgYAIUCqDhMEvA9UMoQDci7Mmg9AKEgR4MCQVgDlR3QuAE5ABwAQiAAoAwXQqkJFBV4FEAHokAJsEGBAjsE/6RAuA/TgfeQgNUDKgGhKkEMBvWWaEA5dKYT10ACP6+FxL845fo36ADeGqeAjoCcAaAJfpzAmykAEhAgz9eK8BhyoHgX/aEuEgAUzHIHQEVg8ZM8BPuXzuBNQfmLpBvBv+nQVAUgACQGvBOCZAKQDJoBaAeqHLQVALsA6gGeIcwbcEHng70FnHiwE9eB4UCNFtxAAhAMwkA+FcRICkA8FMBtgC82BcB7qIAB//9rQLMEwGngr0PCAq4GuBzQs+6GfFBAXQpCAqgi2FvxON7IeuLweceQCWgrAEl/DslwAJ9Yv8kVUBBYNERsATMGCAfoL1RUKC8VzQMBUgT+vdUAghzE4AxkPm9oFfzMLCbANb/NARgbwRAARCDjAReP51pwPniSrliZwzVQF0l42KAOJB2AH/85AICfx8GJACctgELAvgwKAqgdTCBfzYCd0uABfaE/m5fGHwN/kU9sMoE60MCNAV6DeicgPIAzYeiAASA93QrkAWAjeAj/Cf+8lKYYRsI+k8TYLcE4LMPIx8IDryGAaoIz08Le3OYVwaE6UKxejgMCqT9IgDbQOJJ8KsmAOhrHch6BmAFOLC6CQD8eyNAAs6DBECAcjDETqC4UQwBGBMBLY8jE6Ah4HtFUwM+qQekw8CeA0IBEvp6DMTog7+OAvaT4DsmQCoAOgAjGgFMAQ0IF9cJSQM0GZSZgCgA/F4Y4KOCSQAmgfttMHkxsE8CuA003whKCXjcCGsF+AU/+O+PAA1r5YGRDkRAAP74gHpnCBIwvVuaWoBjgK4r6H0BzAbhAhL+N9WtYB4DaK9KwJibAEhAJQCsA5EDaG8Q4MyOCADyy4MgFAqg2aDDjwbVE6LuCGg0qJkPC6cLCPjj1TYYYgCdBXQfWPjXISACoDmwRgEcAArwE/4z2xPgB3VnjmtFEEPRFcASiCBgFBIBiBTEGDCISUhIELxOkYCUvdMG8w5V57WrgYDC/X8zpHZfT9f22aP2eccLF2AIeDXeGDFIBPAAVINaFHA9WAAQ+scEAgFOsUDqYeAGAIQA6H9QA3QJmPivVT8IcGMOBDh7zAKwAf656j9NYMQODBOoRgUHFHEgwPTQzQ2ybzEBXICqQAoAOQz+eyWAYiGYNsJSBn7WFIF/IsA8McB3BLAPyFgQ/dfswJMWgPq3LUAQoDCgJIZQDsQAUD4eQADgUSBvA9hzFjCkBQBoIAMEyGcCA+gifyOAWkIp9IXLTNBxIGEgUh+U0r4AFQMOeAAgwJfBmQVs/P8GApRtYPOAsABSgKYGmAjQ6P3GPzeAlLYrGA8GkOKe4K4ooOgJtWMidUeAgiAdAcKAQzKBlQF4GUDVBJL+i0mQigcUyjcApNwEAiZyAavgAVLebVgAQhqgUxLFvgCEz99rY4q7oqaHHrQMICsA8QP+eyGok0DU/3C0EVhNgHj4/rseQB8DpCHMYgCP7QPe7YCABxuzouPdgVob1dFD3RRMDHh5ohp0oASkLqDXQYEAqgAVEcD6NEUgNwHEAxAAhKwqjx+Uf2MKA1A4uBpAWgAmUOwM0ZjILhMIMTHktmYFewR43rWEDuifUVDUX0SA18ZNAM2CKgb0JEiIASARIJ4bIMD6xwwGkIEgbaEVAToMeLWJAe0ZATYI18UgbY1JEzA3zJmAEIAuICwQ74MyExgZHYWoaUAtERwXQAYY8ubNG/T/CwLc+PcGgA2AAO/Qf0kQvvWH1SBRxM0PpRYQDgCCME0hDID4nxhQAEAJIGUcAQIBGzVAE0GzBAACYAI3brQQMAsCpDQxABZAKgg1SF3Bvefl91PELxbrQ40AqX6XgAAAtoH1PEBYANX3zzYI8B8HAAvsjgOAMIE3r1cECEnVJxDk7wwGQA7wPQZIAwAERAt4ML4ubi/AzhD6wpSCTAzxIvn2vvzLQ+I/VHAXgU+OApVFQI8C8P27BID0oyD4gLCA7/rP16/qnwYBfkJAuABDwAs1BQ0BIXs3h7UIAAQoEdjiBqULiByQHMAJgAHg2sY+uGISYHQVLITv3xnAm0QAbAD1x2sSA/gJBaH+PYmAIcC5IAag29IFQRhRU4ggoEUAbYNI+BcCaBy8nAQRAOgqmJaBpP4dBHYWcEwLp0GAZAmCAIOm4IM/KAciGhJRGCiCsOmhB9YBEQLUTUAXAWsiKPoHAIwATzQKQgHgTTwYAJFAyHQI8DMGsAkYArxAVkcFBxfFzuuooCCgHBQ7kAE0RMCnRwTQ94/6//QuICEgXSBHAJQAQv8YADZwAwS4MY8BhAsI2fABbR4Qr7IrTBj4G3NiLgZ4WDh9wCGU3/BAtjdC8v1rIWB9Gby+CmQmMPpP9XcI8F31qf5JEWAMAfvLgXICggBHAUjTE7IPWHoagNqA6B8ZZgA1E9xXgboKkF3ACQSgLDAXAoQB7IWAxAB6Qo9YGjMoBhkC1BPIScEyEzyk5vX9exacbTAgwGASxCUAXwVC/YoAwH8bwDEdnKUO0BjAeyCAWsAq6F9RgIkB9fpIRwHdHnmfFhZFfJUDADA6C+NBADuA+iyYa4AggGgAOIAmBpAJTBcD/ECA96SChoA/KAcSBWyww8wOxATUEaAntIgFKPXDAuAqyFj/Yx4Q+u+2wSgG6BBA6eB8MUCo/ycCwA4so4CQghiwcVKOKEDbQ50JOBdMBJANKABoTAD9FxFgyMZOeCzAk0BSfxaBNhEgE4K5EOD9TwQYNwVxAhjAX1QDL9Q7Q0wNO2gSSBGAioDxGtLAxingHXbCKwPIHkDqHwSwZCY4FwKE9sEAXIDrwRU91PflawhQFLCxOaxhhizQAFQFpAhMFjBcCAkCDHiAoXxEAPBrE6DLAizTIUBAAAiADXhIBDExgDCgTgRoCvmcVMpGOZAsoLgKlsrXTnA7gPosnHmAfP9NBqAiYEqh/ukQIDGgaAv/lCECkAf4vLjbwptzQhv80IUuYBcCcBjUNLCqDcxRgKILHNKGgHQBQIBMAVb5PxFgf0vIp4XrYlCdBmyfFjYEHBoaSBJBjQD3fBQE/KcNOJ4FP4EACEVgEADBACyzGcC79+8TAYCAJhEQBNzSNZkrRVMIBAADmBcvrotrc9jiNjAL4dwCBP3LLmC9DwwaSAqjQF0T4A0u4MNsBnBuhAAqBZAIlLyAen+oe0IFN6xlh7krfDSApIG3NwHgAZgI4hpg3QVmGBz8pwkMEfj/QYBzlQW8X+Vdyv6mIOp3R8BNQYwACBA/yFvke3bY0pYAHABkG0iTwLtKAFuzgOC/ugAAQCYAkxpAjQDx/SsKUC2gogbdqsuB1r0hIJRfNgWpA9wHAlwCVgTgDGD3OjgAAAjQPkDkqP4P689cBnBuNYD199w2AqxP6H9/T/B3T4lsQkBxXBwESBtYxAO87wCwXgkf0m6D8GVohwCUAKkCkwA06p80BljVvyXpASgHNgZggnC2BAtqkMPAiiKODbga2LECFiJAjQJSAqhSAG8DYSP45kZgRkHcBRYAhPrjdyoDWD/+RID1xwYQEvrHCygTMAbs2Rdwt6aIX+wgQGFAszQEA+i7APVCUHsAlwCcAjgC1Cy4aoCp/XjNZgAhYQIIkh4ACKh4AVDEawsoTspRDSzDAA6KrU9GgSBAAwCJADSAKgDAAMoIoEMAAMD7wFA/8mEyA7iUT5iBDAAIAAHGTUH3hMQO3Loquc0Q1YxASBcDNDwgMgDw30TAGgDEA9MsICEAAAAC2AXMiQCrhPrlBlL9aQBuCOiQAKJbIrSFR3NinhLxjECqnzBg0VkoX4W5txMACAAJACgBIS0NpE0BpPtMAT5MiACAwCViAbKAfFYA2DUqmOI5IV0S2H1NyARB1wMX0wAhgoL/xSzozpXg7ANDjACvxQQNmTMGWBUfQjJoF5CicqCWiGtdQLE+dLg05iIFYc8I9MsDFzzAibNgEAEZBhcADLeBaBi47QJmBuAa4GsAIJ4Pl+cyAGKA9SdecgGrUAsoekIqBhUIIAi4kD9mBxoBQjp24HIfsQdIgQb224dhT1UAkFB/AoCbAM33H3Lj8lwGEJL1ILTvIHA3NchBwK2aGIIYAkCAzWIALkCHgZ9mD0BtYAeA7gISArgNDAAwCGgeaAjQnxAwYQxwjhfBAAYQFhC/ZVvYmWCHAPW8+PojYkCNAJ0PWPoaIBsBUb+KwH+wE941QGWAgQAAQOP+v8vlFQEuT2MAPyX1noXBeIEADgOKWyK7nAAYoJ5AiwBKBVOEAPeLJsDGWUjr3wBQbwMIoQTkCLCrAacJhP6nM4BLZINpBOfCADCBRIAxBNAUHM4I3K14AR4SqLbGgADmAcZPNQ4esrMLVI0CqQqcKQDqT7m8qj8w4PJMBkAsCARgAFkMJBBE/8kPFTNkdEhgzAuAF3LBANDfEViKZRCUAHbPgiYE8P0LALgJ4BJgIkBfAownJNU/FwK0VpB/Qf8ih+2EgLojgAEg3h6JmBtkBIAF8kNQfzEL/FsA4JsAZgK7BPChQYBV//FcnswALpERXIrXeyTUn4NipgaNl4hTDx4XA3xRbMf6UAwgBe1rJawdAOoHADaIwGICZwlQCNCWALII+F1C/RkIrq9ZDOBSiwDxBgGoB//usDAYsBsCdGBeMwIpeVkYBNAwODSgLgQc8kDMBOYwvGkgqB8EIAXAA4AAqw3Ej/R/+d8YADZAJIgL6LrCw2HheAp2oLhB7ghgAg0tQIkAqeDSpYBEgOYBWf+uAYYMUkBGgQL+yy5gqD5eIEA8kQzE7xwIgBHwZ6v+YyIgXsBfbQ1KEQL0UcBt3xHIYgAuQAAAD+iPmgCmAfD9p4D/pgE4AgABEgbmigFaAMAAyARqCCjIgfHsXyMfJuBZQXoCjgKWVL8AAPEwuPG/bgLEC91vbIQt2oA9AvwwgrkQoKkKdi5AEFCMiRRRAGGAagF4AS6K+bIwAi9gSQ/gWWCIwO4C2QG4CMgwqJpA8QIBBgCApOZ/5gL5msYAUkAA9E8qONwX8GAzEUD9IICpITorWg0LtwhADigWSNUFrJcB/CInEcDfv1KAN0YAXhMhAADQu4B4UobUoL2HBIgD0H53VXR9o35Xg0CAp24DkwIoBdw3C0wKwDYQ9sHpLJiYwESBSKv/9Z1Y8M+zAIldALWAJg50GOCe0KPBCmElgkBAmwecPC69+C4oKQAIMI4AAQAjQOqfJGB7EqhD//UXwQGskobwQ/vTIMAqigHoCe3kBtEWxgZkAde3zotDDhM1iDAQVsDS9ABEBEZ+cxTE+4BQvzcCaxYQGxgiwI9IYCYDAAEaEMADmB7onmCXCqJ+UkFEW6NEECYIEAKQAUAE9ixgzQMtZ0GZBEjtgwCmATkFQK5+Vzjun8rg5akQ4Ny5z18UBBTDwkIAOYGyJ2RmiOiB1IJkAUu3Ep4agGkg420QygA2t4E80yxg2wQ0AHz9eMwA+fbzf6aKAS7F7yeXAt7/GS8AF7C7FkAgyC0ZMKCNAxeuQj3FARQ8gP0RoGdBjwjQ9QCoAjbSAMBHEkBU/0tt8Mw0BvCNu3PncSKKoXDDewWIrBAFggoKgiKBoEBKAUgUCMpFCIk+WyICihCP/856xuTDnBnfuwMZTXCyyS6Ux3NsH1/7uhtsQgSIhQAuUDMjgA+UDgijCBMGgun60JVkgLSA5CR45TooHQSIt8L0iUDEf1oAbh8dbfDny74nlgOYA3gcgAFaNYimoFslBdTPikpP0N4+JabTwis9B4oKXOoCP8szABgg0L8MA1MD9sT/7x/I/vk22GkPT4kB5poKbCNATUeASkAooCoI1J0LMA4gBMhGaK4FK0sAbjUSgNaADj4EgBdsg78ZqMMA/NOEcgB8YO6pAHWAjYmUCgHkQKWAMCqYUsCdvCEAAwA/JYAshBuyDcYtJICcA5ZTAO+iBAADfAzog3/4ZXo5gPvAcpsKkAZm1wnVDwu/iGoQHBDzwN7dgTAAJYBEgAIB5PvASAE0A5BLgUQDcPy/P7qPgb84wqRCADZv4gBaEIVAqgUNv1qYSlCSAJUDcQDVgPruhDETCaC7CWTWpwH1a4BQAMEfg/ejK0ypDBRbUwlkcmDkAD0d6E1BLBwQZkIgtgS0EIiV4CqUAMBf2wR4muyDSW6F6moC0AQys+AP+2NBBub3CYYAekPztVcChVFBLC0EyllAzANlQOBeZABEYCkBsoWQ4J9fDA/8GQHE/I/gv1D4oYBp5wC/FwSfNrI2yIxCwK3zfGi+L6CDApwBsDgoFvKAFQRADijxv14E1DYQDAABxCYAPoAGaMHf4FcnIBvcgxwAJ7BUAClItKC4PJAyoLg7EA8QBhAC6Noct5JRIO0C5aNgz0rbQKgAewhA10F58F/Ye9HrAm6TZoDfXGCNHCAUkE4LV8mBKgaQCGYLZFdsAwgSQM0ssKYAeADwQwA8/4VRgB+wv1oEfto5QPSB1xtvCVEKypAAeuDgQoAhEdkXoJNixgBkgHBAOguqIrBmAFoBuMk2ENEA3m3hX/ASj6AhPPkqAFt8hgHKY0JSCrwquEAkgLg0CIu7A1dd1wL2iUAqAfg6sKcR//YVR0EhANEA3jEK4uwvvM9f4gL7wwBtg6B2WBgfSO+SMSudDmRfgJ4PW0EA0gYecC0c94LpJID0gDDwP9F9F2UCUG1wXAc4M4gB5q4OV3KAMoBeKMWQgCYBwQXC0hgMBpBZsCL+MEBSAuZNAFkG4JW/EsCCP9UHvBdwZkwHuHDt9lAXONrIqCB5oI4KpuPisRLUI+Lgj6EH4gAP5SS427B1UDz+eRMgqgAW/BcL8v7w/FMTKPb2dfkCDrBTax3g3MULB4enB9/N4sDpJgW5V9LxT9vCd2MQuIcXaCW4kjZQNgyenwQPDJAQgLQBW/v+YQH0ygBZWXDr0oWL5xoH2Bn+MECbBFy8cP7KjSEU4CVhf1s4p4Anp9kcZm+w79wctqIHYG/n/2QdECIg8D+N+OsxMBIA7I/4/+MEfp5xSQHsb97Rbl49f+FimwLs2AGIAeYA5y9dMzQH2Xzt+EspCAPIXSJSC2aKMAygBBAZ4CH3gg65GZwAIBogFUC4GF4Ogjn7mxncijJOoDXBo2uXzpsDjBEBcIBzrQdcnQ0B397z5aa4PBADfsUfB9Bp4UQLEAZgG0zxYmCWAehG2KAB5hoA8H83+A1VZwEifvPCCTQdnB20+J8bzwGcAhoPOLh649TwkwqEGJBmAVwlok3BbH1oX1swMoAcA6kZBWMbgDQBdSGYboSjCWjB3+B3CvB3JAAoIBLA4dUWfyeA3ToAFOBZgHnApYMr109NAajDhSXiukJaxADngLQOYGGA7A5cyb1wtRuBdRRErwWMGUD3vYA/Pjr8LcwNB/gPDKAUYB83rxw0+HsGMAYBQAHnGg4wEjiYDU4G55sQBJK7pUMhUHG5uHaFpS0MA9SfBM8zgOgBMEByDqgt/WCAxgfAOKWAawZ/8/x7ABjHAYwCWg+wPKAhgauHwzLBRh1WOVDzwCQLSCkgng6EAkgDVqiA6SxwaRRQJwFkIVjXtYDfHznuv7Dnu5QFzE7Yv8X/rOHfEMBuHQAKcA/wMNDEgUGpwLw9M1azMkL1QDygtEQcA36SwDALbC+37E4IvRWs/1Yo+F8IwIK/Aw7qpAIU/0IBjw4v2+Pv9G/475wA1AMgAYsD164PLAitJEwoQBoCwF9zkUCUg5UCVgY+llaAZqVJEBggngLTLoAFf6g/Pvo4haGtWcBNZ39//EfFHw9wEtjGgdnpsffPo80bN80DCQGQQC4IayGAHigHQ1bxavgsAoC/ngQTCZAa0OGXOwE+euSH53GCGBeEAa5t2d8f/7HwxwMiCZAKDEkG2zggHJAfDsMDXshlMg+iHNh7oZjZMbNgHANQ/POd8LoPcGudB8Fh/+UCuy8UYD+GeWSAw1/wx8d/RPzxgOgCB5oK1Nunb8IByeaoUh4oLoAPRBJYiQhUtxG2ogkQD4KHYVDTfd0iASgD2Bsh2Eu/AP+o+OMBXXFgUCqwvW9g/V6OB+aXCr4q3y7O8kCVA50BwL8qAJABYv37APUgeMP+YJwQgNeHQfyz4N/F/qPiDwl4HJBUYJCZOiwjAnqVBB5QFgPuyvJAyQJWwA8DDJMACACUAF0Z4BdQJwtQAkAewAlmIfg7+4/++OdxAHV4QFF4kgoIAyRZQL4+lCQwTIuHtrAxQH4tnOKvl4LAAPQAWAYQJUAL/lhGAAQAezfBfxLsr3FAU4HrQ6rB5nv9rWtMRCsBpYBMDHD02xfmOUAaADQCKAPolQB9syAE/8gBeIH+R/OZBP/x8dc4oKnAfKg2ON9wkUCWBZbHhEAfHyALEAaQWbDqdUB6JYBrgNIEJPiLC0AAvH5XiCT4D2X/sVKBw6Fx4Pbys6pBBIH8XICZng3CIgXgANV3gugsoFYAfTUgwV8MAhAGsI+JBf88FUAdHsIArgrAASIH0hVkX0DSE7orJ0OCHLhCAyjjn2sAeiVASABPgv8ygZ42kApDkwv+SSowXB2eB3X4PRwgc2KaBOSlIIqwzooeSwAojgI+q+sCxnGwRvddiguIHyghePA/sSkF/8pUYDZEE/Axong4rPnRllDtVSKBAnACcwCHP90JbtbXBUy2AUEAHxfLZQo+mMcyYLrBX10gUYeHeMHic8f6UMyPBtWdDdKmEA5QqwHVicBdo0AnwX9pD7999COvRvB39p9Y8N9RKkBZ+OlbaUZA4c+XB+oCWRhADgKWJ0G0CwgB0AT6/sGQb979DrB0xONrIrrvQHWYVGCwMLR+IxygQQBTD3D47+jd0jBAbAPWtoFVAtKNgI0Z+7sH2AsaKFrb9J2E7ltPAsMaxaoI+cfRRo8GiRjQJwdiogYGBkgkoPxaQLfOLqCbsb8D79gX4CcBmF3dh+C/k1TA0KdRnB8NSguBBzokQikAA6RdwPJK8JgC0AZq2d/BX3gWQCjI7XBvgn+VOjz0zFjbKI5iAIIgFJDNiuqVct4SgAGwDH+aABkBAP9Xg9/B9y9IIC8GJ6n7/q06POj4eNsofosYIEEgrwMedK4NClVAEgG0AtAmgBKA4U/wjwxAOrBMgv9+lH6jNophAPGAUkvIv7qPiB+HY0AQQIUEkAwDe/B3i1HAC4LEpqz7jtooJhOwzRLgL4cDgyAcxaAHDn2LPR5ACMibAEoAyTkQGMCCv4Bv7+gLGg0mr/uO0ygGfHxg/c3hz4YEzGqOiMMAyb2Q+Z0AIgFjTfDHHHqqQP9Tba+D/47UYWy+eZmuEDZLB8Uw1KDjcg1YOAakGoAFf7GYAPQ5wX4H/7wk/LsxIm8Uy9kwbQpW3C9/LzCASIA9beBnoQToPQhI8A8G/GQC/cF/r0q/cdXhkiKcboxQCjgu3wxevhaUg4CUfh3Qh2iw/YXgf/k/CP5JKjBMHQZ7/16/jUGAYVG0gL4DwuQBmgM8Lg0DP1MNSNuAH5epLVQQso82+KP77nXw31EqgCzwelNeH6lNISgAcwcob4NABExrQIK/Gk9+KAq2JeHsPwr+u2wUz9t9k2F54JMTAoAB7NVxk4RqATBAhQYYEwC9EkCDvxrQg7z/w57qvmOnAiwb/PStdEAUAkgqARyg6iCgRgB2AlP6FUhAGWC/mr5jN4oV/XaOaP0ybwp2NwQ0CziulADMko3wFvyPlhXmwMMF+9f0HbVRrPCzZEr04GxfwAPuElIGUALQYyBmug7Ij4F8WRj8R+1HYhF7s71s+v5TdfhweBz43DcoJkEAwwlgAM0AK9vAbl8+HBn49gH8dWTwX+i+Y6vD2PpbNibUszru9/2hOECSAMhG0Pj8f/1w5Lb0V3UY+G9033HGiCgFmCnePO+lgAdYDwPYz7FkADoJ8CwjgJ/sXT2P00AQ5S9QRHRUUDBgCVEhhQKkKxAu/SO2RAmnyEr+PB578GMzu3s2MbfreF6S9V3ambyZfW8/DhxypMB0Crgv3TeHUSzqcLALiDoC102Am7AMSBC6FKatGmDff9AJpLF+0zf/jmLi168LZ8D0rYLeKdJggFj8gyuBFft7FPB0FdhU8f9vrQCNrcB3VQMm7RFguNR5UOkp4PnQKOx5SCfBBov/8uowyYOEBU66D4yeIOxTgJt3ICAaAC7+QUjsE/HfYPH/H0YxYaROHVamYJQCFAPMuhlc0L5v6rqpYznQp0CEBe7N9M2lDqMPEKM4wQCgAL8IvOsSYNqlML4LcP6J2Cvsk/OBOzR9cxnFdH1X/bdEH6huFxe4fyCA86H/9XdDnAQGaUjNB+7U9M1mFJNnENSnZBsIvAVcmAAwA9ASQLuvBzSMmt8RFmB4CXC/pm9Ooxig6vEpOfDtFQe4mTeDf2nfj+GXR4QDpAlACty56ZurFaCxERSjeNLZgZoBkqfBSApw8a8FiH40B/wKcPemby6jGBCj+HMyBd76irBLEIBeCc7F3wfmAmH8oYFqC6ZvNqMY/cBgFKe7AIn9MLope8EFbaWizx8Zw9EXYXgrpu/c6C9iFJNXCVAH4hmAJNAMoBeCCzr2p1pBgs9DPAU2q/s+mzqsbyO6hB0BnBgCBkD4tQgsEgCHnwjx1zyAPkBh07pvxvMmfyhfOHS5vEu5gDgQ8tBw+KmOpQAj0gZuXfd9dqOYXpMYxX0R+Jg4L6Ab3JQpYFtx6BMp0HD4g1PCbZq+eY1i4vdgFKuz4yAFgAHSN8ML+9MQfuI0iIDD7+fAdk3f/K0A9cPxm9KDUQbAACkCOB849hL6JAfwYMU/uzo8poCowx84A7QfAB0gZQJ07L/n+AsFECggggYUYMU/h1Gse4Hq8SF1q6RLrgNrK8S9f0ghiAUfhaAx0zeXOozooxUYKcCzBHwG0BoQF3/EH49kI8Dvrvib7pt9RzG0ITr+CFNAzwAxCeBLX/y9AiD/gwUiObB7aaZvGa2AJAE1p4fIdUIuQgBc/AU+A/BLvovATN8ijGKOO+oBVZfwXlEXngGc3yPwtcoAaup4/M30LaQVIGRBPx4vvhYgDBCaAgy6L3mo8Y1QQB2ggeaVFf+ijGIsF2JV4IM+NMYFFgIfvNiPpV8xQqNkgZ2ZviUaxZIERPtHOUIYSaAToN3r8Kv4h5UhM31fvChKHSa1evTX5YoCnB9/Zv/gz19ngBQBxjCa7isoWh1+ffzsNYLu7/h/4vArIP74G8kgNECm+44o0ygWSaB7nx5AAX4CoPgr1OEaQNT0f5jue40CLyYcm8HqUTLAT4C2ikefoeM/agJm+iqUNSX0mYDV4TEBJPpg/xQFhDPAir/CM7QCc6eENAzyouMHKQFC/wf+UiE+HURjsLPiH0ap6rBIg3T6ODLA17amSdA9QG3FP4ri1GFIg2IUcwKg+M9iAHmZ7ptEma0ASTvIqsAbNxT/NP/HRGHTfZ9EmUZxB5LbiNyBo8/vuSlgpu8klKgOY7UI8WNm6OVhuu80lNkKwCck+XsmrPjPQ4kXE3agkQZmFoFXNvXLBJDA7UYxyVP+m46h+Bv7z0Op24i6T88B07PAdN/8WOToacI4TAQmpIDpvoVgGaOY/PvKrfivCbcaxToHSIggAtN9S8ONRrGWBXiw4r8mLLN2WEYaRwrCNvsUiNuMYs0C3RApA2b6FoobjWJNA8EU2Nlmn3KxmFEsH+qfpvuuCAuuGYNLxC8zfVeCxbYR0d/a4ADb7LMK3GQUawaAMmCm71qwUCuANvC1Ff91YQmjmGToR9N914a4Orz7h4UCO9N914cFjGIaHqb7rhQ37SjGz99M39ViCaPYdN/f7dtBDoMwDERRBdFKZMeil+D+B2wSq0EtjRRgFc9/PYKtjGuLod09FG+E/+huHYoJfw8ub4fZ+zpxGAW6tsN170v4j+/8oXjj6OvLye0we19/2qMA4a+h91DM0detrkMxR1/P2qMA4a8htEcBC//I3te5xhfFMa6vNUa+9BXwZztcsfeV8JsDOQiy8vjz109AOLaAWQh/EaUD9hZIluSRy0/4a/hugTQMpN+T8iuxHMjm3UT466ijQDJPpfqEv5aaA4bXX09ugcyKT/kFlSAwPP6awgfl11WLTwcAAAAAAAAAAACX3t0mfNxqde9bAAAAAElFTkSuQmCC;" vertex="1" parent="1">
          <mxGeometry x="581" y="732.5" width="49" height="49" as="geometry" />
        </mxCell>
        <mxCell id="ZGsex49RbRiVFDESX9-7-54" value="output" style="rounded=0;whiteSpace=wrap;html=1;" vertex="1" parent="1">
          <mxGeometry x="359.25" y="952" width="60.5" height="30" as="geometry" />
        </mxCell>
        <mxCell id="ZGsex49RbRiVFDESX9-7-58" value="&lt;h1&gt;Target State&lt;/h1&gt;&lt;p&gt;Tiered Rendering Stages allow for ease of rendering and pickup&lt;br&gt;&lt;br&gt;Breaks down scene for individual chunks&lt;br&gt;&lt;br&gt;Allows for PR Renders to leverage Github auditing with buffer changes&lt;/p&gt;" style="text;html=1;strokeColor=none;fillColor=none;spacing=5;spacingTop=-20;whiteSpace=wrap;overflow=hidden;rounded=0;" vertex="1" parent="1">
          <mxGeometry x="10" y="261" width="190" height="211" as="geometry" />
        </mxCell>
        <mxCell id="ZGsex49RbRiVFDESX9-7-62" value="&lt;p style=&quot;margin: 4px 0px 0px&quot;&gt;&lt;b&gt;On PR Render&lt;/b&gt;&lt;/p&gt;&lt;hr size=&quot;1&quot;&gt;&lt;div style=&quot;height: 2px&quot;&gt;&lt;/div&gt;" style="verticalAlign=top;align=left;overflow=fill;fontSize=12;fontFamily=Helvetica;html=1;dashed=1;fillColor=none;" vertex="1" parent="1">
          <mxGeometry x="210" y="232" width="520" height="330" as="geometry" />
        </mxCell>
      </root>
    </mxGraphModel>
  </diagram>
</mxfile>
